<?xml version="1.0" encoding="UTF-8"?>
<svg xmlns="http://www.w3.org/2000/svg" xmlns:xlink="http://www.w3.org/1999/xlink" width="1157.049" height="767.8129999999999"><g transform="scale(1.333) translate(428,371)" style="fill:none;"><g transform="translate(-79,-176)"><path d="M76,173Q76,-20 172,14" stroke="#707070" stroke-width="1"/></g><g transform="translate(-221,-64)"><path d="M218,61Q218,-20 49,14" stroke="#707070" stroke-width="1"/></g><g transform="translate(-79,-24)"><path d="M76,21Q76,197 172,163" stroke="#707070" stroke-width="1"/></g><g transform="translate(93,-272)"><path d="M32,110Q32,-20 83,14" stroke="#707070" stroke-width="1"/></g><g transform="translate(93,-176)"><path d="M32,14Q32,144 83,110" stroke="#707070" stroke-width="1"/></g><g transform="translate(176,-344)"><path d="M35,86Q35,-20 90,14" stroke="#707070" stroke-width="1"/></g><g transform="translate(176,-296)"><path d="M60,38Q60,-10 90,14" stroke="#707070" stroke-width="1"/></g><g transform="translate(176,-272)"><path d="M60,14Q60,62 90,38" stroke="#707070" stroke-width="1"/></g><g transform="translate(176,-272)"><path d="M35,14Q35,120 90,86" stroke="#707070" stroke-width="1"/></g><g transform="translate(176,-152)"><path d="M32,86Q32,-20 84,14" stroke="#707070" stroke-width="1"/></g><g transform="translate(176,-104)"><path d="M54,38Q54,-10 84,14" stroke="#707070" stroke-width="1"/></g><g transform="translate(176,-80)"><path d="M54,14Q54,62 84,38" stroke="#707070" stroke-width="1"/></g><g transform="translate(176,-80)"><path d="M32,14Q32,120 84,86" stroke="#707070" stroke-width="1"/></g><g transform="translate(159,101)"><path d="M48,38Q48,-10 78,14" stroke="#707070" stroke-width="1"/></g><g transform="translate(93,125)"><path d="M36,14L66,14" stroke="#707070" stroke-width="1"/></g><g transform="translate(-328,-112)"><path d="M132,62Q132,-20 87,14" stroke="#707070" stroke-width="1"/></g><g transform="translate(-350,-64)"><path d="M139,14L109,14" stroke="#707070" stroke-width="1"/></g><g transform="translate(-401,-64)"><path d="M61,14L31,14" stroke="#707070" stroke-width="1"/></g><g transform="translate(-326,-64)"><path d="M130,14Q130,96 85,62" stroke="#707070" stroke-width="1"/></g><g transform="translate(159,125)"><path d="M48,14Q48,62 78,38" stroke="#707070" stroke-width="1"/></g><g transform="translate(-79 -24)"><rect x="0" y="0" width="152" height="42" rx="10" ry="10" style="fill:#22AAE0;stroke:#707070;stroke-width:1px;"/><g transform="translate (5 5) scale(0.005859375)" style="fill:#4F4F4F;"><g transform="translate(3285.833333333334 2048) scale (1 -1)"><path d="M494 774L596 774Q739 774 810 830.5Q881 887 881 995Q881 1104 821.5 1156Q762 1208 635 1208L494 1208ZM1194 1006Q1194 770 1046.5 645Q899 520 627 520L494 520L494 0L184 0L184 1462L651 1462Q917 1462 1055.5 1347.5Q1194 1233 1194 1006Z"/></g><g transform="translate(4571.833333333334 2048) scale (1 -1)"><path d="M1104 0L82 0L82 215L449 586Q612 753 662 817.5Q712 882 734 937Q756 992 756 1051Q756 1139 707.5 1182Q659 1225 578 1225Q493 1225 413 1186Q333 1147 246 1075L78 1274Q186 1366 257 1404Q328 1442 412 1462.5Q496 1483 600 1483Q737 1483 842 1433Q947 1383 1005 1293Q1063 1203 1063 1087Q1063 986 1027.5 897.5Q992 809 917.5 716Q843 623 655 451L467 274L467 260L1104 260Z"/></g><g transform="translate(5742.833333333334 2048) scale (1 -1)"><path d="M494 774L596 774Q739 774 810 830.5Q881 887 881 995Q881 1104 821.5 1156Q762 1208 635 1208L494 1208ZM1194 1006Q1194 770 1046.5 645Q899 520 627 520L494 520L494 0L184 0L184 1462L651 1462Q917 1462 1055.5 1347.5Q1194 1233 1194 1006Z"/></g><g transform="translate(7560.833333333334 2048) scale (1 -1)"><path d="M739 821L1319 821L1319 63Q1178 17 1053.5 -1.5Q929 -20 799 -20Q468 -20 293.5 174.5Q119 369 119 733Q119 1087 321.5 1285Q524 1483 883 1483Q1108 1483 1317 1393L1214 1145Q1054 1225 881 1225Q680 1225 559 1090Q438 955 438 727Q438 489 535.5 363.5Q633 238 819 238Q916 238 1016 258L1016 563L739 563Z"/></g><g transform="translate(9043.833333333334 2048) scale (1 -1)"><path d="M1047 406Q1047 208 904.5 94Q762 -20 508 -20Q274 -20 94 68L94 356Q242 290 344.5 263Q447 236 532 236Q634 236 688.5 275Q743 314 743 391Q743 434 719 467.5Q695 501 648.5 532Q602 563 459 631Q325 694 258 752Q191 810 151 887Q111 964 111 1067Q111 1261 242.5 1372Q374 1483 606 1483Q720 1483 823.5 1456Q927 1429 1040 1380L940 1139Q823 1187 746.5 1206Q670 1225 596 1225Q508 1225 461 1184Q414 1143 414 1077Q414 1036 433 1005.5Q452 975 493.5 946.5Q535 918 690 844Q895 746 971 647.5Q1047 549 1047 406Z"/></g><g transform="translate(10171.833333333334 2048) scale (1 -1)"><path d="M803 0L451 1147L442 1147Q461 797 461 680L461 0L184 0L184 1462L606 1462L952 344L958 344L1325 1462L1747 1462L1747 0L1458 0L1458 692Q1458 741 1459.5 805Q1461 869 1473 1145L1464 1145L1087 0Z"/></g><g transform="translate(12102.833333333334 2048) scale (1 -1)"><path d="M61 424L61 674L598 674L598 424Z"/></g><g transform="translate(12761.833333333334 2048) scale (1 -1)"><path d="M748 0L438 0L438 1204L41 1204L41 1462L1145 1462L1145 1204L748 1204Z"/></g><g transform="translate(13947.833333333334 2048) scale (1 -1)"><path d="M623 922Q526 922 471 860.5Q416 799 408 686L836 686Q834 799 777 860.5Q720 922 623 922ZM666 -20Q396 -20 244 129Q92 278 92 551Q92 832 232.5 985.5Q373 1139 621 1139Q858 1139 990 1004Q1122 869 1122 631L1122 483L401 483Q406 353 478 280Q550 207 680 207Q781 207 871 228Q961 249 1059 295L1059 59Q979 19 888 -0.5Q797 -20 666 -20Z"/></g><g transform="translate(15157.833333333334 2048) scale (1 -1)"><path d="M465 0L160 0L160 1556L465 1556Z"/></g><g transform="translate(15782.833333333334 2048) scale (1 -1)"><path d="M623 922Q526 922 471 860.5Q416 799 408 686L836 686Q834 799 777 860.5Q720 922 623 922ZM666 -20Q396 -20 244 129Q92 278 92 551Q92 832 232.5 985.5Q373 1139 621 1139Q858 1139 990 1004Q1122 869 1122 631L1122 483L401 483Q406 353 478 280Q550 207 680 207Q781 207 871 228Q961 249 1059 295L1059 59Q979 19 888 -0.5Q797 -20 666 -20Z"/></g><g transform="translate(16992.833333333336 2048) scale (1 -1)"><path d="M778 889L514 889L514 0L209 0L209 889L41 889L41 1036L209 1118L209 1200Q209 1391 303 1479Q397 1567 604 1567Q762 1567 885 1520L807 1296Q715 1325 637 1325Q572 1325 543 1286.5Q514 1248 514 1188L514 1118L778 1118Z"/></g><g transform="translate(17785.833333333336 2048) scale (1 -1)"><path d="M403 561Q403 395 457.5 310Q512 225 635 225Q757 225 810.5 309.5Q864 394 864 561Q864 727 810 810Q756 893 633 893Q511 893 457 810.5Q403 728 403 561ZM1176 561Q1176 288 1032 134Q888 -20 631 -20Q470 -20 347 50.5Q224 121 158 253Q92 385 92 561Q92 835 235 987Q378 1139 637 1139Q798 1139 921 1069Q1044 999 1110 868Q1176 737 1176 561Z"/></g><g transform="translate(19053.833333333336 2048) scale (1 -1)"><path d="M1192 0L887 0L887 653Q887 774 844 834.5Q801 895 707 895Q579 895 522 809.5Q465 724 465 526L465 0L160 0L160 1118L393 1118L434 975L451 975Q502 1056 591.5 1097.5Q681 1139 795 1139Q990 1139 1091 1033.5Q1192 928 1192 729Z"/></g><g transform="translate(20399.833333333336 2048) scale (1 -1)"><path d="M61 424L61 674L598 674L598 424Z"/></g><g transform="translate(77.33333333333394 4778.666666666666) scale (1 -1)"><path d="M739 821L1319 821L1319 63Q1178 17 1053.5 -1.5Q929 -20 799 -20Q468 -20 293.5 174.5Q119 369 119 733Q119 1087 321.5 1285Q524 1483 883 1483Q1108 1483 1317 1393L1214 1145Q1054 1225 881 1225Q680 1225 559 1090Q438 955 438 727Q438 489 535.5 363.5Q633 238 819 238Q916 238 1016 258L1016 563L739 563Z"/></g><g transform="translate(1560.333333333334 4778.666666666666) scale (1 -1)"><path d="M870 0L811 152L803 152Q726 55 644.5 17.5Q563 -20 432 -20Q271 -20 178.5 72Q86 164 86 334Q86 512 210.5 596.5Q335 681 586 690L780 696L780 745Q780 915 606 915Q472 915 291 834L190 1040Q383 1141 618 1141Q843 1141 963 1043Q1083 945 1083 745L1083 0ZM780 518L662 514Q529 510 464 466Q399 422 399 332Q399 203 547 203Q653 203 716.5 264Q780 325 780 426Z"/></g><g transform="translate(2797.333333333334 4778.666666666666) scale (1 -1)"><path d="M631 223Q711 223 823 258L823 31Q709 -20 543 -20Q360 -20 276.5 72.5Q193 165 193 350L193 889L47 889L47 1018L215 1120L303 1356L498 1356L498 1118L811 1118L811 889L498 889L498 350Q498 285 534.5 254Q571 223 631 223Z"/></g><g transform="translate(3686.333333333334 4778.666666666666) scale (1 -1)"><path d="M623 922Q526 922 471 860.5Q416 799 408 686L836 686Q834 799 777 860.5Q720 922 623 922ZM666 -20Q396 -20 244 129Q92 278 92 551Q92 832 232.5 985.5Q373 1139 621 1139Q858 1139 990 1004Q1122 869 1122 631L1122 483L401 483Q406 353 478 280Q550 207 680 207Q781 207 871 228Q961 249 1059 295L1059 59Q979 19 888 -0.5Q797 -20 666 -20Z"/></g><g transform="translate(4896.333333333334 4778.666666666666) scale (1 -1)"><path d="M1079 0L993 391L879 885L870 885L666 0L338 0L20 1118L324 1118L453 623Q475 535 514 256L522 256Q526 332 557 497L573 582L711 1118L1047 1118L1178 582Q1190 527 1207.5 420.5Q1225 314 1227 256L1235 256Q1246 345 1266 458.5Q1286 572 1300 623L1434 1118L1733 1118L1411 0Z"/></g><g transform="translate(6649.333333333334 4778.666666666666) scale (1 -1)"><path d="M870 0L811 152L803 152Q726 55 644.5 17.5Q563 -20 432 -20Q271 -20 178.5 72Q86 164 86 334Q86 512 210.5 596.5Q335 681 586 690L780 696L780 745Q780 915 606 915Q472 915 291 834L190 1040Q383 1141 618 1141Q843 1141 963 1043Q1083 945 1083 745L1083 0ZM780 518L662 514Q529 510 464 466Q399 422 399 332Q399 203 547 203Q653 203 716.5 264Q780 325 780 426Z"/></g><g transform="translate(7886.333333333334 4778.666666666666) scale (1 -1)"><path d="M0 1118L334 1118L545 489Q572 407 582 295L588 295Q599 398 631 489L838 1118L1165 1118L692 -143Q627 -318 506.5 -405Q386 -492 225 -492Q146 -492 70 -475L70 -233Q125 -246 190 -246Q271 -246 331.5 -196.5Q392 -147 426 -47L444 8Z"/></g><g transform="translate(9583.333333333334 4778.666666666666) scale (1 -1)"><path d="M1161 0L856 0L856 653Q856 774 815.5 834.5Q775 895 688 895Q571 895 518 809Q465 723 465 526L465 0L160 0L160 1118L393 1118L434 975L451 975Q496 1052 581 1095.5Q666 1139 776 1139Q1027 1139 1116 975L1143 975Q1188 1053 1275.5 1096Q1363 1139 1473 1139Q1663 1139 1760.5 1041.5Q1858 944 1858 729L1858 0L1552 0L1552 653Q1552 774 1511.5 834.5Q1471 895 1384 895Q1272 895 1216.5 815Q1161 735 1161 561Z"/></g><g transform="translate(11594.333333333334 4778.666666666666) scale (1 -1)"><path d="M147 1407Q147 1556 313 1556Q479 1556 479 1407Q479 1336 437.5 1296.5Q396 1257 313 1257Q147 1257 147 1407ZM465 0L160 0L160 1118L465 1118Z"/></g><g transform="translate(12219.333333333334 4778.666666666666) scale (1 -1)"><path d="M631 223Q711 223 823 258L823 31Q709 -20 543 -20Q360 -20 276.5 72.5Q193 165 193 350L193 889L47 889L47 1018L215 1120L303 1356L498 1356L498 1118L811 1118L811 889L498 889L498 350Q498 285 534.5 254Q571 223 631 223Z"/></g><g transform="translate(13640.333333333334 4778.666666666666) scale (1 -1)"><path d="M805 1225Q630 1225 534 1093.5Q438 962 438 727Q438 238 805 238Q959 238 1178 315L1178 55Q998 -20 776 -20Q457 -20 288 173.5Q119 367 119 729Q119 957 202 1128.5Q285 1300 440.5 1391.5Q596 1483 805 1483Q1018 1483 1233 1380L1133 1128Q1051 1167 968 1196Q885 1225 805 1225Z"/></g><g transform="translate(14945.333333333334 4778.666666666666) scale (1 -1)"><path d="M465 0L160 0L160 1556L465 1556Z"/></g><g transform="translate(15570.333333333334 4778.666666666666) scale (1 -1)"><path d="M147 1407Q147 1556 313 1556Q479 1556 479 1407Q479 1336 437.5 1296.5Q396 1257 313 1257Q147 1257 147 1407ZM465 0L160 0L160 1118L465 1118Z"/></g><g transform="translate(16195.333333333334 4778.666666666666) scale (1 -1)"><path d="M623 922Q526 922 471 860.5Q416 799 408 686L836 686Q834 799 777 860.5Q720 922 623 922ZM666 -20Q396 -20 244 129Q92 278 92 551Q92 832 232.5 985.5Q373 1139 621 1139Q858 1139 990 1004Q1122 869 1122 631L1122 483L401 483Q406 353 478 280Q550 207 680 207Q781 207 871 228Q961 249 1059 295L1059 59Q979 19 888 -0.5Q797 -20 666 -20Z"/></g><g transform="translate(17405.333333333336 4778.666666666666) scale (1 -1)"><path d="M1192 0L887 0L887 653Q887 774 844 834.5Q801 895 707 895Q579 895 522 809.5Q465 724 465 526L465 0L160 0L160 1118L393 1118L434 975L451 975Q502 1056 591.5 1097.5Q681 1139 795 1139Q990 1139 1091 1033.5Q1192 928 1192 729Z"/></g><g transform="translate(18751.333333333336 4778.666666666666) scale (1 -1)"><path d="M631 223Q711 223 823 258L823 31Q709 -20 543 -20Q360 -20 276.5 72.5Q193 165 193 350L193 889L47 889L47 1018L215 1120L303 1356L498 1356L498 1118L811 1118L811 889L498 889L498 350Q498 285 534.5 254Q571 223 631 223Z"/></g><g transform="translate(20172.333333333336 4778.666666666666) scale (1 -1)"><path d="M1079 0L973 348L440 348L334 0L0 0L516 1468L895 1468L1413 0ZM899 608Q752 1081 733.5 1143Q715 1205 707 1241Q674 1113 518 608Z"/></g><g transform="translate(21585.333333333336 4778.666666666666) scale (1 -1)"><path d="M774 -20Q577 -20 465 123L449 123Q465 -17 465 -39L465 -492L160 -492L160 1118L408 1118L451 973L465 973Q572 1139 782 1139Q980 1139 1092 986Q1204 833 1204 561Q1204 382 1151.5 250Q1099 118 1002 49Q905 -20 774 -20ZM684 895Q571 895 519 825.5Q467 756 465 596L465 563Q465 383 518.5 305Q572 227 688 227Q893 227 893 565Q893 730 842.5 812.5Q792 895 684 895Z"/></g><g transform="translate(22881.333333333336 4778.666666666666) scale (1 -1)"><path d="M774 -20Q577 -20 465 123L449 123Q465 -17 465 -39L465 -492L160 -492L160 1118L408 1118L451 973L465 973Q572 1139 782 1139Q980 1139 1092 986Q1204 833 1204 561Q1204 382 1151.5 250Q1099 118 1002 49Q905 -20 774 -20ZM684 895Q571 895 519 825.5Q467 756 465 596L465 563Q465 383 518.5 305Q572 227 688 227Q893 227 893 565Q893 730 842.5 812.5Q792 895 684 895Z"/></g></g></g><g transform="translate(93 -176)"><rect x="0" y="0" width="63" height="28" rx="10" ry="10" style="fill:#E0E0E0;stroke:#707070;stroke-width:1px;"/><g transform="translate (5 5) scale(0.005859375)" style="fill:#4F4F4F;"><g transform="translate(45.66666666666697 2048) scale (1 -1)"><path d="M739 821L1319 821L1319 63Q1178 17 1053.5 -1.5Q929 -20 799 -20Q468 -20 293.5 174.5Q119 369 119 733Q119 1087 321.5 1285Q524 1483 883 1483Q1108 1483 1317 1393L1214 1145Q1054 1225 881 1225Q680 1225 559 1090Q438 955 438 727Q438 489 535.5 363.5Q633 238 819 238Q916 238 1016 258L1016 563L739 563Z"/></g><g transform="translate(1528.666666666667 2048) scale (1 -1)"><path d="M870 0L811 152L803 152Q726 55 644.5 17.5Q563 -20 432 -20Q271 -20 178.5 72Q86 164 86 334Q86 512 210.5 596.5Q335 681 586 690L780 696L780 745Q780 915 606 915Q472 915 291 834L190 1040Q383 1141 618 1141Q843 1141 963 1043Q1083 945 1083 745L1083 0ZM780 518L662 514Q529 510 464 466Q399 422 399 332Q399 203 547 203Q653 203 716.5 264Q780 325 780 426Z"/></g><g transform="translate(2765.666666666667 2048) scale (1 -1)"><path d="M631 223Q711 223 823 258L823 31Q709 -20 543 -20Q360 -20 276.5 72.5Q193 165 193 350L193 889L47 889L47 1018L215 1120L303 1356L498 1356L498 1118L811 1118L811 889L498 889L498 350Q498 285 534.5 254Q571 223 631 223Z"/></g><g transform="translate(3654.666666666667 2048) scale (1 -1)"><path d="M623 922Q526 922 471 860.5Q416 799 408 686L836 686Q834 799 777 860.5Q720 922 623 922ZM666 -20Q396 -20 244 129Q92 278 92 551Q92 832 232.5 985.5Q373 1139 621 1139Q858 1139 990 1004Q1122 869 1122 631L1122 483L401 483Q406 353 478 280Q550 207 680 207Q781 207 871 228Q961 249 1059 295L1059 59Q979 19 888 -0.5Q797 -20 666 -20Z"/></g><g transform="translate(4864.666666666667 2048) scale (1 -1)"><path d="M1079 0L993 391L879 885L870 885L666 0L338 0L20 1118L324 1118L453 623Q475 535 514 256L522 256Q526 332 557 497L573 582L711 1118L1047 1118L1178 582Q1190 527 1207.5 420.5Q1225 314 1227 256L1235 256Q1246 345 1266 458.5Q1286 572 1300 623L1434 1118L1733 1118L1411 0Z"/></g><g transform="translate(6617.666666666667 2048) scale (1 -1)"><path d="M870 0L811 152L803 152Q726 55 644.5 17.5Q563 -20 432 -20Q271 -20 178.5 72Q86 164 86 334Q86 512 210.5 596.5Q335 681 586 690L780 696L780 745Q780 915 606 915Q472 915 291 834L190 1040Q383 1141 618 1141Q843 1141 963 1043Q1083 945 1083 745L1083 0ZM780 518L662 514Q529 510 464 466Q399 422 399 332Q399 203 547 203Q653 203 716.5 264Q780 325 780 426Z"/></g><g transform="translate(7854.666666666667 2048) scale (1 -1)"><path d="M0 1118L334 1118L545 489Q572 407 582 295L588 295Q599 398 631 489L838 1118L1165 1118L692 -143Q627 -318 506.5 -405Q386 -492 225 -492Q146 -492 70 -475L70 -233Q125 -246 190 -246Q271 -246 331.5 -196.5Q392 -147 426 -47L444 8Z"/></g></g></g><g transform="translate(-221 -64)"><rect x="0" y="0" width="49" height="28" rx="10" ry="10" style="fill:#E0E0E0;stroke:#707070;stroke-width:1px;"/><g transform="translate (5 5) scale(0.005859375)" style="fill:#4F4F4F;"><g transform="translate(41.5 2048) scale (1 -1)"><path d="M1047 406Q1047 208 904.5 94Q762 -20 508 -20Q274 -20 94 68L94 356Q242 290 344.5 263Q447 236 532 236Q634 236 688.5 275Q743 314 743 391Q743 434 719 467.5Q695 501 648.5 532Q602 563 459 631Q325 694 258 752Q191 810 151 887Q111 964 111 1067Q111 1261 242.5 1372Q374 1483 606 1483Q720 1483 823.5 1456Q927 1429 1040 1380L940 1139Q823 1187 746.5 1206Q670 1225 596 1225Q508 1225 461 1184Q414 1143 414 1077Q414 1036 433 1005.5Q452 975 493.5 946.5Q535 918 690 844Q895 746 971 647.5Q1047 549 1047 406Z"/></g><g transform="translate(1169.5 2048) scale (1 -1)"><path d="M623 922Q526 922 471 860.5Q416 799 408 686L836 686Q834 799 777 860.5Q720 922 623 922ZM666 -20Q396 -20 244 129Q92 278 92 551Q92 832 232.5 985.5Q373 1139 621 1139Q858 1139 990 1004Q1122 869 1122 631L1122 483L401 483Q406 353 478 280Q550 207 680 207Q781 207 871 228Q961 249 1059 295L1059 59Q979 19 888 -0.5Q797 -20 666 -20Z"/></g><g transform="translate(2379.5 2048) scale (1 -1)"><path d="M784 1139Q846 1139 887 1130L864 844Q827 854 774 854Q628 854 546.5 779Q465 704 465 569L465 0L160 0L160 1118L391 1118L436 930L451 930Q503 1024 591.5 1081.5Q680 1139 784 1139Z"/></g><g transform="translate(3309.5 2048) scale (1 -1)"><path d="M426 0L0 1118L319 1118L535 481Q568 377 578 252L586 252Q592 365 631 481L846 1118L1165 1118L739 0Z"/></g><g transform="translate(4474.5 2048) scale (1 -1)"><path d="M623 922Q526 922 471 860.5Q416 799 408 686L836 686Q834 799 777 860.5Q720 922 623 922ZM666 -20Q396 -20 244 129Q92 278 92 551Q92 832 232.5 985.5Q373 1139 621 1139Q858 1139 990 1004Q1122 869 1122 631L1122 483L401 483Q406 353 478 280Q550 207 680 207Q781 207 871 228Q961 249 1059 295L1059 59Q979 19 888 -0.5Q797 -20 666 -20Z"/></g><g transform="translate(5684.5 2048) scale (1 -1)"><path d="M784 1139Q846 1139 887 1130L864 844Q827 854 774 854Q628 854 546.5 779Q465 704 465 569L465 0L160 0L160 1118L391 1118L436 930L451 930Q503 1024 591.5 1081.5Q680 1139 784 1139Z"/></g></g></g><g transform="translate(93 125)"><rect x="0" y="0" width="46" height="28" rx="10" ry="10" style="fill:#E0E0E0;stroke:#707070;stroke-width:1px;"/><g transform="translate (5 5) scale(0.005859375)" style="fill:#4F4F4F;"><g transform="translate(72 2048) scale (1 -1)"><path d="M805 1225Q630 1225 534 1093.5Q438 962 438 727Q438 238 805 238Q959 238 1178 315L1178 55Q998 -20 776 -20Q457 -20 288 173.5Q119 367 119 729Q119 957 202 1128.5Q285 1300 440.5 1391.5Q596 1483 805 1483Q1018 1483 1233 1380L1133 1128Q1051 1167 968 1196Q885 1225 805 1225Z"/></g><g transform="translate(1377 2048) scale (1 -1)"><path d="M465 0L160 0L160 1556L465 1556Z"/></g><g transform="translate(2002 2048) scale (1 -1)"><path d="M147 1407Q147 1556 313 1556Q479 1556 479 1407Q479 1336 437.5 1296.5Q396 1257 313 1257Q147 1257 147 1407ZM465 0L160 0L160 1118L465 1118Z"/></g><g transform="translate(2627 2048) scale (1 -1)"><path d="M623 922Q526 922 471 860.5Q416 799 408 686L836 686Q834 799 777 860.5Q720 922 623 922ZM666 -20Q396 -20 244 129Q92 278 92 551Q92 832 232.5 985.5Q373 1139 621 1139Q858 1139 990 1004Q1122 869 1122 631L1122 483L401 483Q406 353 478 280Q550 207 680 207Q781 207 871 228Q961 249 1059 295L1059 59Q979 19 888 -0.5Q797 -20 666 -20Z"/></g><g transform="translate(3837 2048) scale (1 -1)"><path d="M1192 0L887 0L887 653Q887 774 844 834.5Q801 895 707 895Q579 895 522 809.5Q465 724 465 526L465 0L160 0L160 1118L393 1118L434 975L451 975Q502 1056 591.5 1097.5Q681 1139 795 1139Q990 1139 1091 1033.5Q1192 928 1192 729Z"/></g><g transform="translate(5183 2048) scale (1 -1)"><path d="M631 223Q711 223 823 258L823 31Q709 -20 543 -20Q360 -20 276.5 72.5Q193 165 193 350L193 889L47 889L47 1018L215 1120L303 1356L498 1356L498 1118L811 1118L811 889L498 889L498 350Q498 285 534.5 254Q571 223 631 223Z"/></g></g></g><g transform="translate(176 -272)"><rect x="0" y="0" width="70" height="28" rx="10" ry="10" style="fill:#E0E0E0;stroke:#707070;stroke-width:1px;"/><g transform="translate (5 5) scale(0.005859375)" style="fill:#4F4F4F;"><g transform="translate(60 2048) scale (1 -1)"><path d="M1382 0L1073 0L1073 631L494 631L494 0L184 0L184 1462L494 1462L494 889L1073 889L1073 1462L1382 1462Z"/></g><g transform="translate(1627 2048) scale (1 -1)"><path d="M870 0L811 152L803 152Q726 55 644.5 17.5Q563 -20 432 -20Q271 -20 178.5 72Q86 164 86 334Q86 512 210.5 596.5Q335 681 586 690L780 696L780 745Q780 915 606 915Q472 915 291 834L190 1040Q383 1141 618 1141Q843 1141 963 1043Q1083 945 1083 745L1083 0ZM780 518L662 514Q529 510 464 466Q399 422 399 332Q399 203 547 203Q653 203 716.5 264Q780 325 780 426Z"/></g><g transform="translate(2864 2048) scale (1 -1)"><path d="M784 1139Q846 1139 887 1130L864 844Q827 854 774 854Q628 854 546.5 779Q465 704 465 569L465 0L160 0L160 1118L391 1118L436 930L451 930Q503 1024 591.5 1081.5Q680 1139 784 1139Z"/></g><g transform="translate(3794 2048) scale (1 -1)"><path d="M514 -20Q317 -20 204.5 133Q92 286 92 557Q92 832 206.5 985.5Q321 1139 522 1139Q733 1139 844 975L854 975Q831 1100 831 1198L831 1556L1137 1556L1137 0L903 0L844 145L831 145Q727 -20 514 -20ZM621 223Q738 223 792.5 291Q847 359 852 522L852 555Q852 735 796.5 813Q741 891 616 891Q514 891 457.5 804.5Q401 718 401 553Q401 388 458 305.5Q515 223 621 223Z"/></g><g transform="translate(5090 2048) scale (1 -1)"><path d="M1079 0L993 391L879 885L870 885L666 0L338 0L20 1118L324 1118L453 623Q475 535 514 256L522 256Q526 332 557 497L573 582L711 1118L1047 1118L1178 582Q1190 527 1207.5 420.5Q1225 314 1227 256L1235 256Q1246 345 1266 458.5Q1286 572 1300 623L1434 1118L1733 1118L1411 0Z"/></g><g transform="translate(6843 2048) scale (1 -1)"><path d="M870 0L811 152L803 152Q726 55 644.5 17.5Q563 -20 432 -20Q271 -20 178.5 72Q86 164 86 334Q86 512 210.5 596.5Q335 681 586 690L780 696L780 745Q780 915 606 915Q472 915 291 834L190 1040Q383 1141 618 1141Q843 1141 963 1043Q1083 945 1083 745L1083 0ZM780 518L662 514Q529 510 464 466Q399 422 399 332Q399 203 547 203Q653 203 716.5 264Q780 325 780 426Z"/></g><g transform="translate(8080 2048) scale (1 -1)"><path d="M784 1139Q846 1139 887 1130L864 844Q827 854 774 854Q628 854 546.5 779Q465 704 465 569L465 0L160 0L160 1118L391 1118L436 930L451 930Q503 1024 591.5 1081.5Q680 1139 784 1139Z"/></g><g transform="translate(9010 2048) scale (1 -1)"><path d="M623 922Q526 922 471 860.5Q416 799 408 686L836 686Q834 799 777 860.5Q720 922 623 922ZM666 -20Q396 -20 244 129Q92 278 92 551Q92 832 232.5 985.5Q373 1139 621 1139Q858 1139 990 1004Q1122 869 1122 631L1122 483L401 483Q406 353 478 280Q550 207 680 207Q781 207 871 228Q961 249 1059 295L1059 59Q979 19 888 -0.5Q797 -20 666 -20Z"/></g></g></g><g transform="translate(176 -80)"><rect x="0" y="0" width="64" height="28" rx="10" ry="10" style="fill:#E0E0E0;stroke:#707070;stroke-width:1px;"/><g transform="translate (5 5) scale(0.005859375)" style="fill:#4F4F4F;"><g transform="translate(14 2048) scale (1 -1)"><path d="M1047 406Q1047 208 904.5 94Q762 -20 508 -20Q274 -20 94 68L94 356Q242 290 344.5 263Q447 236 532 236Q634 236 688.5 275Q743 314 743 391Q743 434 719 467.5Q695 501 648.5 532Q602 563 459 631Q325 694 258 752Q191 810 151 887Q111 964 111 1067Q111 1261 242.5 1372Q374 1483 606 1483Q720 1483 823.5 1456Q927 1429 1040 1380L940 1139Q823 1187 746.5 1206Q670 1225 596 1225Q508 1225 461 1184Q414 1143 414 1077Q414 1036 433 1005.5Q452 975 493.5 946.5Q535 918 690 844Q895 746 971 647.5Q1047 549 1047 406Z"/></g><g transform="translate(1142 2048) scale (1 -1)"><path d="M403 561Q403 395 457.5 310Q512 225 635 225Q757 225 810.5 309.5Q864 394 864 561Q864 727 810 810Q756 893 633 893Q511 893 457 810.5Q403 728 403 561ZM1176 561Q1176 288 1032 134Q888 -20 631 -20Q470 -20 347 50.5Q224 121 158 253Q92 385 92 561Q92 835 235 987Q378 1139 637 1139Q798 1139 921 1069Q1044 999 1110 868Q1176 737 1176 561Z"/></g><g transform="translate(2410 2048) scale (1 -1)"><path d="M778 889L514 889L514 0L209 0L209 889L41 889L41 1036L209 1118L209 1200Q209 1391 303 1479Q397 1567 604 1567Q762 1567 885 1520L807 1296Q715 1325 637 1325Q572 1325 543 1286.5Q514 1248 514 1188L514 1118L778 1118Z"/></g><g transform="translate(3203 2048) scale (1 -1)"><path d="M631 223Q711 223 823 258L823 31Q709 -20 543 -20Q360 -20 276.5 72.5Q193 165 193 350L193 889L47 889L47 1018L215 1120L303 1356L498 1356L498 1118L811 1118L811 889L498 889L498 350Q498 285 534.5 254Q571 223 631 223Z"/></g><g transform="translate(4092 2048) scale (1 -1)"><path d="M1079 0L993 391L879 885L870 885L666 0L338 0L20 1118L324 1118L453 623Q475 535 514 256L522 256Q526 332 557 497L573 582L711 1118L1047 1118L1178 582Q1190 527 1207.5 420.5Q1225 314 1227 256L1235 256Q1246 345 1266 458.5Q1286 572 1300 623L1434 1118L1733 1118L1411 0Z"/></g><g transform="translate(5845 2048) scale (1 -1)"><path d="M870 0L811 152L803 152Q726 55 644.5 17.5Q563 -20 432 -20Q271 -20 178.5 72Q86 164 86 334Q86 512 210.5 596.5Q335 681 586 690L780 696L780 745Q780 915 606 915Q472 915 291 834L190 1040Q383 1141 618 1141Q843 1141 963 1043Q1083 945 1083 745L1083 0ZM780 518L662 514Q529 510 464 466Q399 422 399 332Q399 203 547 203Q653 203 716.5 264Q780 325 780 426Z"/></g><g transform="translate(7082 2048) scale (1 -1)"><path d="M784 1139Q846 1139 887 1130L864 844Q827 854 774 854Q628 854 546.5 779Q465 704 465 569L465 0L160 0L160 1118L391 1118L436 930L451 930Q503 1024 591.5 1081.5Q680 1139 784 1139Z"/></g><g transform="translate(8012 2048) scale (1 -1)"><path d="M623 922Q526 922 471 860.5Q416 799 408 686L836 686Q834 799 777 860.5Q720 922 623 922ZM666 -20Q396 -20 244 129Q92 278 92 551Q92 832 232.5 985.5Q373 1139 621 1139Q858 1139 990 1004Q1122 869 1122 631L1122 483L401 483Q406 353 478 280Q550 207 680 207Q781 207 871 228Q961 249 1059 295L1059 59Q979 19 888 -0.5Q797 -20 666 -20Z"/></g></g></g><g transform="translate(266 -344)"><rect x="0" y="0" width="62" height="28" rx="10" ry="10" style="fill:#E0E0E0;stroke:#707070;stroke-width:1px;"/><g transform="translate (5 5) scale(0.005859375)" style="fill:#4F4F4F;"><g transform="translate(12.33333333333303 2048) scale (1 -1)"><path d="M739 821L1319 821L1319 63Q1178 17 1053.5 -1.5Q929 -20 799 -20Q468 -20 293.5 174.5Q119 369 119 733Q119 1087 321.5 1285Q524 1483 883 1483Q1108 1483 1317 1393L1214 1145Q1054 1225 881 1225Q680 1225 559 1090Q438 955 438 727Q438 489 535.5 363.5Q633 238 819 238Q916 238 1016 258L1016 563L739 563Z"/></g><g transform="translate(1495.333333333333 2048) scale (1 -1)"><path d="M623 922Q526 922 471 860.5Q416 799 408 686L836 686Q834 799 777 860.5Q720 922 623 922ZM666 -20Q396 -20 244 129Q92 278 92 551Q92 832 232.5 985.5Q373 1139 621 1139Q858 1139 990 1004Q1122 869 1122 631L1122 483L401 483Q406 353 478 280Q550 207 680 207Q781 207 871 228Q961 249 1059 295L1059 59Q979 19 888 -0.5Q797 -20 666 -20Z"/></g><g transform="translate(2705.333333333333 2048) scale (1 -1)"><path d="M1192 0L887 0L887 653Q887 895 707 895Q579 895 522 808Q465 721 465 526L465 0L160 0L160 1556L465 1556L465 1239Q465 1202 458 1065L451 975L467 975Q569 1139 791 1139Q988 1139 1090 1033Q1192 927 1192 729Z"/></g><g transform="translate(4051.333333333333 2048) scale (1 -1)"><path d="M870 0L811 152L803 152Q726 55 644.5 17.5Q563 -20 432 -20Q271 -20 178.5 72Q86 164 86 334Q86 512 210.5 596.5Q335 681 586 690L780 696L780 745Q780 915 606 915Q472 915 291 834L190 1040Q383 1141 618 1141Q843 1141 963 1043Q1083 945 1083 745L1083 0ZM780 518L662 514Q529 510 464 466Q399 422 399 332Q399 203 547 203Q653 203 716.5 264Q780 325 780 426ZM285 1405Q285 1470 322.5 1505Q360 1540 424 1540Q490 1540 527.5 1503Q565 1466 565 1405Q565 1345 527 1308.5Q489 1272 424 1272Q360 1272 322.5 1307Q285 1342 285 1405ZM688 1405Q688 1475 728.5 1507.5Q769 1540 829 1540Q894 1540 932.5 1504Q971 1468 971 1405Q971 1344 932 1308Q893 1272 829 1272Q769 1272 728.5 1304.5Q688 1337 688 1405Z"/></g><g transform="translate(5288.333333333333 2048) scale (1 -1)"><path d="M952 0L911 143L895 143Q846 65 756 22.5Q666 -20 551 -20Q354 -20 254 85.5Q154 191 154 389L154 1118L459 1118L459 465Q459 344 502 283.5Q545 223 639 223Q767 223 824 308.5Q881 394 881 592L881 1118L1186 1118L1186 0Z"/></g><g transform="translate(6634.333333333333 2048) scale (1 -1)"><path d="M940 332Q940 160 820.5 70Q701 -20 463 -20Q341 -20 255 -3.5Q169 13 94 45L94 297Q179 257 285.5 230Q392 203 473 203Q639 203 639 299Q639 335 617 357.5Q595 380 541 408.5Q487 437 397 475Q268 529 207.5 575Q147 621 119.5 680.5Q92 740 92 827Q92 976 207.5 1057.5Q323 1139 535 1139Q737 1139 928 1051L836 831Q752 867 679 890Q606 913 530 913Q395 913 395 840Q395 799 438.5 769Q482 739 629 680Q760 627 821 581Q882 535 911 475Q940 415 940 332Z"/></g><g transform="translate(7652.333333333333 2048) scale (1 -1)"><path d="M623 922Q526 922 471 860.5Q416 799 408 686L836 686Q834 799 777 860.5Q720 922 623 922ZM666 -20Q396 -20 244 129Q92 278 92 551Q92 832 232.5 985.5Q373 1139 621 1139Q858 1139 990 1004Q1122 869 1122 631L1122 483L401 483Q406 353 478 280Q550 207 680 207Q781 207 871 228Q961 249 1059 295L1059 59Q979 19 888 -0.5Q797 -20 666 -20Z"/></g></g></g><g transform="translate(266 -296)"><rect x="0" y="0" width="146" height="28" rx="10" ry="10" style="fill:#E0E0E0;stroke:#707070;stroke-width:1px;"/><g transform="translate (5 5) scale(0.005859375)" style="fill:#4F4F4F;"><g transform="translate(28.33333333333394 2048) scale (1 -1)"><path d="M1047 406Q1047 208 904.5 94Q762 -20 508 -20Q274 -20 94 68L94 356Q242 290 344.5 263Q447 236 532 236Q634 236 688.5 275Q743 314 743 391Q743 434 719 467.5Q695 501 648.5 532Q602 563 459 631Q325 694 258 752Q191 810 151 887Q111 964 111 1067Q111 1261 242.5 1372Q374 1483 606 1483Q720 1483 823.5 1456Q927 1429 1040 1380L940 1139Q823 1187 746.5 1206Q670 1225 596 1225Q508 1225 461 1184Q414 1143 414 1077Q414 1036 433 1005.5Q452 975 493.5 946.5Q535 918 690 844Q895 746 971 647.5Q1047 549 1047 406Z"/></g><g transform="translate(1156.333333333334 2048) scale (1 -1)"><path d="M774 -20Q577 -20 465 123L449 123Q465 -17 465 -39L465 -492L160 -492L160 1118L408 1118L451 973L465 973Q572 1139 782 1139Q980 1139 1092 986Q1204 833 1204 561Q1204 382 1151.5 250Q1099 118 1002 49Q905 -20 774 -20ZM684 895Q571 895 519 825.5Q467 756 465 596L465 563Q465 383 518.5 305Q572 227 688 227Q893 227 893 565Q893 730 842.5 812.5Q792 895 684 895Z"/></g><g transform="translate(2452.333333333334 2048) scale (1 -1)"><path d="M870 0L811 152L803 152Q726 55 644.5 17.5Q563 -20 432 -20Q271 -20 178.5 72Q86 164 86 334Q86 512 210.5 596.5Q335 681 586 690L780 696L780 745Q780 915 606 915Q472 915 291 834L190 1040Q383 1141 618 1141Q843 1141 963 1043Q1083 945 1083 745L1083 0ZM780 518L662 514Q529 510 464 466Q399 422 399 332Q399 203 547 203Q653 203 716.5 264Q780 325 780 426Z"/></g><g transform="translate(3689.333333333334 2048) scale (1 -1)"><path d="M1192 0L887 0L887 653Q887 774 844 834.5Q801 895 707 895Q579 895 522 809.5Q465 724 465 526L465 0L160 0L160 1118L393 1118L434 975L451 975Q502 1056 591.5 1097.5Q681 1139 795 1139Q990 1139 1091 1033.5Q1192 928 1192 729Z"/></g><g transform="translate(5035.333333333334 2048) scale (1 -1)"><path d="M1192 0L887 0L887 653Q887 774 844 834.5Q801 895 707 895Q579 895 522 809.5Q465 724 465 526L465 0L160 0L160 1118L393 1118L434 975L451 975Q502 1056 591.5 1097.5Q681 1139 795 1139Q990 1139 1091 1033.5Q1192 928 1192 729Z"/></g><g transform="translate(6381.333333333334 2048) scale (1 -1)"><path d="M952 0L911 143L895 143Q846 65 756 22.5Q666 -20 551 -20Q354 -20 254 85.5Q154 191 154 389L154 1118L459 1118L459 465Q459 344 502 283.5Q545 223 639 223Q767 223 824 308.5Q881 394 881 592L881 1118L1186 1118L1186 0Z"/></g><g transform="translate(7727.333333333334 2048) scale (1 -1)"><path d="M1192 0L887 0L887 653Q887 774 844 834.5Q801 895 707 895Q579 895 522 809.5Q465 724 465 526L465 0L160 0L160 1118L393 1118L434 975L451 975Q502 1056 591.5 1097.5Q681 1139 795 1139Q990 1139 1091 1033.5Q1192 928 1192 729Z"/></g><g transform="translate(9073.333333333334 2048) scale (1 -1)"><path d="M623 219Q746 219 799 289.5Q852 360 852 518L852 555Q852 734 796.5 812.5Q741 891 618 891Q403 891 403 553Q403 385 456.5 302Q510 219 623 219ZM1137 -2Q1137 -243 996.5 -367.5Q856 -492 578 -492Q333 -492 160 -426L160 -182Q363 -268 596 -268Q831 -268 831 -14L831 8L840 145L831 145Q724 -20 514 -20Q313 -20 202.5 135Q92 290 92 557Q92 832 206.5 985.5Q321 1139 522 1139Q728 1139 846 975L854 975L879 1118L1137 1118Z"/></g><g transform="translate(10369.333333333334 2048) scale (1 -1)"><path d="M940 332Q940 160 820.5 70Q701 -20 463 -20Q341 -20 255 -3.5Q169 13 94 45L94 297Q179 257 285.5 230Q392 203 473 203Q639 203 639 299Q639 335 617 357.5Q595 380 541 408.5Q487 437 397 475Q268 529 207.5 575Q147 621 119.5 680.5Q92 740 92 827Q92 976 207.5 1057.5Q323 1139 535 1139Q737 1139 928 1051L836 831Q752 867 679 890Q606 913 530 913Q395 913 395 840Q395 799 438.5 769Q482 739 629 680Q760 627 821 581Q882 535 911 475Q940 415 940 332Z"/></g><g transform="translate(11387.333333333334 2048) scale (1 -1)"><path d="M426 0L0 1118L319 1118L535 481Q568 377 578 252L586 252Q592 365 631 481L846 1118L1165 1118L739 0Z"/></g><g transform="translate(12552.333333333334 2048) scale (1 -1)"><path d="M623 922Q526 922 471 860.5Q416 799 408 686L836 686Q834 799 777 860.5Q720 922 623 922ZM666 -20Q396 -20 244 129Q92 278 92 551Q92 832 232.5 985.5Q373 1139 621 1139Q858 1139 990 1004Q1122 869 1122 631L1122 483L401 483Q406 353 478 280Q550 207 680 207Q781 207 871 228Q961 249 1059 295L1059 59Q979 19 888 -0.5Q797 -20 666 -20Z"/></g><g transform="translate(13762.333333333334 2048) scale (1 -1)"><path d="M784 1139Q846 1139 887 1130L864 844Q827 854 774 854Q628 854 546.5 779Q465 704 465 569L465 0L160 0L160 1118L391 1118L436 930L451 930Q503 1024 591.5 1081.5Q680 1139 784 1139Z"/></g><g transform="translate(14692.333333333334 2048) scale (1 -1)"><path d="M940 332Q940 160 820.5 70Q701 -20 463 -20Q341 -20 255 -3.5Q169 13 94 45L94 297Q179 257 285.5 230Q392 203 473 203Q639 203 639 299Q639 335 617 357.5Q595 380 541 408.5Q487 437 397 475Q268 529 207.5 575Q147 621 119.5 680.5Q92 740 92 827Q92 976 207.5 1057.5Q323 1139 535 1139Q737 1139 928 1051L836 831Q752 867 679 890Q606 913 530 913Q395 913 395 840Q395 799 438.5 769Q482 739 629 680Q760 627 821 581Q882 535 911 475Q940 415 940 332Z"/></g><g transform="translate(15710.333333333334 2048) scale (1 -1)"><path d="M403 561Q403 395 457.5 310Q512 225 635 225Q757 225 810.5 309.5Q864 394 864 561Q864 727 810 810Q756 893 633 893Q511 893 457 810.5Q403 728 403 561ZM1176 561Q1176 288 1032 134Q888 -20 631 -20Q470 -20 347 50.5Q224 121 158 253Q92 385 92 561Q92 835 235 987Q378 1139 637 1139Q798 1139 921 1069Q1044 999 1110 868Q1176 737 1176 561Z"/></g><g transform="translate(16978.333333333336 2048) scale (1 -1)"><path d="M784 1139Q846 1139 887 1130L864 844Q827 854 774 854Q628 854 546.5 779Q465 704 465 569L465 0L160 0L160 1118L391 1118L436 930L451 930Q503 1024 591.5 1081.5Q680 1139 784 1139Z"/></g><g transform="translate(17908.333333333336 2048) scale (1 -1)"><path d="M623 219Q746 219 799 289.5Q852 360 852 518L852 555Q852 734 796.5 812.5Q741 891 618 891Q403 891 403 553Q403 385 456.5 302Q510 219 623 219ZM1137 -2Q1137 -243 996.5 -367.5Q856 -492 578 -492Q333 -492 160 -426L160 -182Q363 -268 596 -268Q831 -268 831 -14L831 8L840 145L831 145Q724 -20 514 -20Q313 -20 202.5 135Q92 290 92 557Q92 832 206.5 985.5Q321 1139 522 1139Q728 1139 846 975L854 975L879 1118L1137 1118Z"/></g><g transform="translate(19204.333333333336 2048) scale (1 -1)"><path d="M952 0L911 143L895 143Q846 65 756 22.5Q666 -20 551 -20Q354 -20 254 85.5Q154 191 154 389L154 1118L459 1118L459 465Q459 344 502 283.5Q545 223 639 223Q767 223 824 308.5Q881 394 881 592L881 1118L1186 1118L1186 0Z"/></g><g transform="translate(20550.333333333336 2048) scale (1 -1)"><path d="M1192 0L887 0L887 653Q887 774 844 834.5Q801 895 707 895Q579 895 522 809.5Q465 724 465 526L465 0L160 0L160 1118L393 1118L434 975L451 975Q502 1056 591.5 1097.5Q681 1139 795 1139Q990 1139 1091 1033.5Q1192 928 1192 729Z"/></g><g transform="translate(21896.333333333336 2048) scale (1 -1)"><path d="M623 219Q746 219 799 289.5Q852 360 852 518L852 555Q852 734 796.5 812.5Q741 891 618 891Q403 891 403 553Q403 385 456.5 302Q510 219 623 219ZM1137 -2Q1137 -243 996.5 -367.5Q856 -492 578 -492Q333 -492 160 -426L160 -182Q363 -268 596 -268Q831 -268 831 -14L831 8L840 145L831 145Q724 -20 514 -20Q313 -20 202.5 135Q92 290 92 557Q92 832 206.5 985.5Q321 1139 522 1139Q728 1139 846 975L854 975L879 1118L1137 1118Z"/></g></g></g><g transform="translate(266 -248)"><rect x="0" y="0" width="84" height="28" rx="10" ry="10" style="fill:#E0E0E0;stroke:#707070;stroke-width:1px;"/><g transform="translate (5 5) scale(0.005859375)" style="fill:#4F4F4F;"><g transform="translate(8.66666666666697 2048) scale (1 -1)"><path d="M1079 0L973 348L440 348L334 0L0 0L516 1468L895 1468L1413 0ZM899 608Q752 1081 733.5 1143Q715 1205 707 1241Q674 1113 518 608Z"/></g><g transform="translate(1421.666666666667 2048) scale (1 -1)"><path d="M952 0L911 143L895 143Q846 65 756 22.5Q666 -20 551 -20Q354 -20 254 85.5Q154 191 154 389L154 1118L459 1118L459 465Q459 344 502 283.5Q545 223 639 223Q767 223 824 308.5Q881 394 881 592L881 1118L1186 1118L1186 0Z"/></g><g transform="translate(2767.666666666667 2048) scale (1 -1)"><path d="M514 -20Q317 -20 204.5 133Q92 286 92 557Q92 832 206.5 985.5Q321 1139 522 1139Q733 1139 844 975L854 975Q831 1100 831 1198L831 1556L1137 1556L1137 0L903 0L844 145L831 145Q727 -20 514 -20ZM621 223Q738 223 792.5 291Q847 359 852 522L852 555Q852 735 796.5 813Q741 891 616 891Q514 891 457.5 804.5Q401 718 401 553Q401 388 458 305.5Q515 223 621 223Z"/></g><g transform="translate(4063.666666666667 2048) scale (1 -1)"><path d="M147 1407Q147 1556 313 1556Q479 1556 479 1407Q479 1336 437.5 1296.5Q396 1257 313 1257Q147 1257 147 1407ZM465 0L160 0L160 1118L465 1118Z"/></g><g transform="translate(4688.666666666667 2048) scale (1 -1)"><path d="M403 561Q403 395 457.5 310Q512 225 635 225Q757 225 810.5 309.5Q864 394 864 561Q864 727 810 810Q756 893 633 893Q511 893 457 810.5Q403 728 403 561ZM1176 561Q1176 288 1032 134Q888 -20 631 -20Q470 -20 347 50.5Q224 121 158 253Q92 385 92 561Q92 835 235 987Q378 1139 637 1139Q798 1139 921 1069Q1044 999 1110 868Q1176 737 1176 561Z"/></g><g transform="translate(6488.666666666667 2048) scale (1 -1)"><path d="M805 1225Q630 1225 534 1093.5Q438 962 438 727Q438 238 805 238Q959 238 1178 315L1178 55Q998 -20 776 -20Q457 -20 288 173.5Q119 367 119 729Q119 957 202 1128.5Q285 1300 440.5 1391.5Q596 1483 805 1483Q1018 1483 1233 1380L1133 1128Q1051 1167 968 1196Q885 1225 805 1225Z"/></g><g transform="translate(7793.666666666667 2048) scale (1 -1)"><path d="M403 561Q403 395 457.5 310Q512 225 635 225Q757 225 810.5 309.5Q864 394 864 561Q864 727 810 810Q756 893 633 893Q511 893 457 810.5Q403 728 403 561ZM1176 561Q1176 288 1032 134Q888 -20 631 -20Q470 -20 347 50.5Q224 121 158 253Q92 385 92 561Q92 835 235 987Q378 1139 637 1139Q798 1139 921 1069Q1044 999 1110 868Q1176 737 1176 561Z"/></g><g transform="translate(9061.666666666668 2048) scale (1 -1)"><path d="M514 -20Q317 -20 204.5 133Q92 286 92 557Q92 832 206.5 985.5Q321 1139 522 1139Q733 1139 844 975L854 975Q831 1100 831 1198L831 1556L1137 1556L1137 0L903 0L844 145L831 145Q727 -20 514 -20ZM621 223Q738 223 792.5 291Q847 359 852 522L852 555Q852 735 796.5 813Q741 891 616 891Q514 891 457.5 804.5Q401 718 401 553Q401 388 458 305.5Q515 223 621 223Z"/></g><g transform="translate(10357.666666666668 2048) scale (1 -1)"><path d="M623 922Q526 922 471 860.5Q416 799 408 686L836 686Q834 799 777 860.5Q720 922 623 922ZM666 -20Q396 -20 244 129Q92 278 92 551Q92 832 232.5 985.5Q373 1139 621 1139Q858 1139 990 1004Q1122 869 1122 631L1122 483L401 483Q406 353 478 280Q550 207 680 207Q781 207 871 228Q961 249 1059 295L1059 59Q979 19 888 -0.5Q797 -20 666 -20Z"/></g><g transform="translate(11567.666666666668 2048) scale (1 -1)"><path d="M614 -20Q92 -20 92 553Q92 838 234 988.5Q376 1139 641 1139Q835 1139 989 1063L899 827Q827 856 765 874.5Q703 893 641 893Q403 893 403 555Q403 227 641 227Q729 227 804 250.5Q879 274 954 324L954 63Q880 16 804.5 -2Q729 -20 614 -20Z"/></g></g></g><g transform="translate(266 -200)"><rect x="0" y="0" width="116" height="28" rx="10" ry="10" style="fill:#E0E0E0;stroke:#707070;stroke-width:1px;"/><g transform="translate (5 5) scale(0.005859375)" style="fill:#4F4F4F;"><g transform="translate(7.83333333333394 2048) scale (1 -1)"><path d="M1047 406Q1047 208 904.5 94Q762 -20 508 -20Q274 -20 94 68L94 356Q242 290 344.5 263Q447 236 532 236Q634 236 688.5 275Q743 314 743 391Q743 434 719 467.5Q695 501 648.5 532Q602 563 459 631Q325 694 258 752Q191 810 151 887Q111 964 111 1067Q111 1261 242.5 1372Q374 1483 606 1483Q720 1483 823.5 1456Q927 1429 1040 1380L940 1139Q823 1187 746.5 1206Q670 1225 596 1225Q508 1225 461 1184Q414 1143 414 1077Q414 1036 433 1005.5Q452 975 493.5 946.5Q535 918 690 844Q895 746 971 647.5Q1047 549 1047 406Z"/></g><g transform="translate(1135.833333333334 2048) scale (1 -1)"><path d="M614 -20Q92 -20 92 553Q92 838 234 988.5Q376 1139 641 1139Q835 1139 989 1063L899 827Q827 856 765 874.5Q703 893 641 893Q403 893 403 555Q403 227 641 227Q729 227 804 250.5Q879 274 954 324L954 63Q880 16 804.5 -2Q729 -20 614 -20Z"/></g><g transform="translate(2188.833333333334 2048) scale (1 -1)"><path d="M1192 0L887 0L887 653Q887 895 707 895Q579 895 522 808Q465 721 465 526L465 0L160 0L160 1556L465 1556L465 1239Q465 1202 458 1065L451 975L467 975Q569 1139 791 1139Q988 1139 1090 1033Q1192 927 1192 729Z"/></g><g transform="translate(3534.833333333334 2048) scale (1 -1)"><path d="M870 0L811 152L803 152Q726 55 644.5 17.5Q563 -20 432 -20Q271 -20 178.5 72Q86 164 86 334Q86 512 210.5 596.5Q335 681 586 690L780 696L780 745Q780 915 606 915Q472 915 291 834L190 1040Q383 1141 618 1141Q843 1141 963 1043Q1083 945 1083 745L1083 0ZM780 518L662 514Q529 510 464 466Q399 422 399 332Q399 203 547 203Q653 203 716.5 264Q780 325 780 426Z"/></g><g transform="translate(4771.833333333334 2048) scale (1 -1)"><path d="M465 0L160 0L160 1556L465 1556Z"/></g><g transform="translate(5396.833333333334 2048) scale (1 -1)"><path d="M631 223Q711 223 823 258L823 31Q709 -20 543 -20Q360 -20 276.5 72.5Q193 165 193 350L193 889L47 889L47 1018L215 1120L303 1356L498 1356L498 1118L811 1118L811 889L498 889L498 350Q498 285 534.5 254Q571 223 631 223Z"/></g><g transform="translate(6285.833333333334 2048) scale (1 -1)"><path d="M952 0L911 143L895 143Q846 65 756 22.5Q666 -20 551 -20Q354 -20 254 85.5Q154 191 154 389L154 1118L459 1118L459 465Q459 344 502 283.5Q545 223 639 223Q767 223 824 308.5Q881 394 881 592L881 1118L1186 1118L1186 0Z"/></g><g transform="translate(7631.833333333334 2048) scale (1 -1)"><path d="M1192 0L887 0L887 653Q887 774 844 834.5Q801 895 707 895Q579 895 522 809.5Q465 724 465 526L465 0L160 0L160 1118L393 1118L434 975L451 975Q502 1056 591.5 1097.5Q681 1139 795 1139Q990 1139 1091 1033.5Q1192 928 1192 729Z"/></g><g transform="translate(8977.833333333334 2048) scale (1 -1)"><path d="M623 219Q746 219 799 289.5Q852 360 852 518L852 555Q852 734 796.5 812.5Q741 891 618 891Q403 891 403 553Q403 385 456.5 302Q510 219 623 219ZM1137 -2Q1137 -243 996.5 -367.5Q856 -492 578 -492Q333 -492 160 -426L160 -182Q363 -268 596 -268Q831 -268 831 -14L831 8L840 145L831 145Q724 -20 514 -20Q313 -20 202.5 135Q92 290 92 557Q92 832 206.5 985.5Q321 1139 522 1139Q728 1139 846 975L854 975L879 1118L1137 1118Z"/></g><g transform="translate(10273.833333333334 2048) scale (1 -1)"><path d="M940 332Q940 160 820.5 70Q701 -20 463 -20Q341 -20 255 -3.5Q169 13 94 45L94 297Q179 257 285.5 230Q392 203 473 203Q639 203 639 299Q639 335 617 357.5Q595 380 541 408.5Q487 437 397 475Q268 529 207.5 575Q147 621 119.5 680.5Q92 740 92 827Q92 976 207.5 1057.5Q323 1139 535 1139Q737 1139 928 1051L836 831Q752 867 679 890Q606 913 530 913Q395 913 395 840Q395 799 438.5 769Q482 739 629 680Q760 627 821 581Q882 535 911 475Q940 415 940 332Z"/></g><g transform="translate(11291.833333333334 2048) scale (1 -1)"><path d="M514 -20Q317 -20 204.5 133Q92 286 92 557Q92 832 206.5 985.5Q321 1139 522 1139Q733 1139 844 975L854 975Q831 1100 831 1198L831 1556L1137 1556L1137 0L903 0L844 145L831 145Q727 -20 514 -20ZM621 223Q738 223 792.5 291Q847 359 852 522L852 555Q852 735 796.5 813Q741 891 616 891Q514 891 457.5 804.5Q401 718 401 553Q401 388 458 305.5Q515 223 621 223Z"/></g><g transform="translate(12587.833333333334 2048) scale (1 -1)"><path d="M623 922Q526 922 471 860.5Q416 799 408 686L836 686Q834 799 777 860.5Q720 922 623 922ZM666 -20Q396 -20 244 129Q92 278 92 551Q92 832 232.5 985.5Q373 1139 621 1139Q858 1139 990 1004Q1122 869 1122 631L1122 483L401 483Q406 353 478 280Q550 207 680 207Q781 207 871 228Q961 249 1059 295L1059 59Q979 19 888 -0.5Q797 -20 666 -20Z"/></g><g transform="translate(13797.833333333334 2048) scale (1 -1)"><path d="M940 332Q940 160 820.5 70Q701 -20 463 -20Q341 -20 255 -3.5Q169 13 94 45L94 297Q179 257 285.5 230Q392 203 473 203Q639 203 639 299Q639 335 617 357.5Q595 380 541 408.5Q487 437 397 475Q268 529 207.5 575Q147 621 119.5 680.5Q92 740 92 827Q92 976 207.5 1057.5Q323 1139 535 1139Q737 1139 928 1051L836 831Q752 867 679 890Q606 913 530 913Q395 913 395 840Q395 799 438.5 769Q482 739 629 680Q760 627 821 581Q882 535 911 475Q940 415 940 332Z"/></g><g transform="translate(14815.833333333334 2048) scale (1 -1)"><path d="M147 1407Q147 1556 313 1556Q479 1556 479 1407Q479 1336 437.5 1296.5Q396 1257 313 1257Q147 1257 147 1407ZM465 0L160 0L160 1118L465 1118Z"/></g><g transform="translate(15440.833333333334 2048) scale (1 -1)"><path d="M623 219Q746 219 799 289.5Q852 360 852 518L852 555Q852 734 796.5 812.5Q741 891 618 891Q403 891 403 553Q403 385 456.5 302Q510 219 623 219ZM1137 -2Q1137 -243 996.5 -367.5Q856 -492 578 -492Q333 -492 160 -426L160 -182Q363 -268 596 -268Q831 -268 831 -14L831 8L840 145L831 145Q724 -20 514 -20Q313 -20 202.5 135Q92 290 92 557Q92 832 206.5 985.5Q321 1139 522 1139Q728 1139 846 975L854 975L879 1118L1137 1118Z"/></g><g transform="translate(16736.833333333336 2048) scale (1 -1)"><path d="M1192 0L887 0L887 653Q887 774 844 834.5Q801 895 707 895Q579 895 522 809.5Q465 724 465 526L465 0L160 0L160 1118L393 1118L434 975L451 975Q502 1056 591.5 1097.5Q681 1139 795 1139Q990 1139 1091 1033.5Q1192 928 1192 729Z"/></g></g></g><g transform="translate(260 -152)"><rect x="0" y="0" width="90" height="28" rx="10" ry="10" style="fill:#E0E0E0;stroke:#707070;stroke-width:1px;"/><g transform="translate (5 5) scale(0.005859375)" style="fill:#4F4F4F;"><g transform="translate(31.16666666666697 2048) scale (1 -1)"><path d="M1511 733Q1511 370 1331 175Q1151 -20 815 -20Q479 -20 299 175Q119 370 119 735Q119 1100 299.5 1292.5Q480 1485 817 1485Q1154 1485 1332.5 1291Q1511 1097 1511 733ZM444 733Q444 488 537 364Q630 240 815 240Q1186 240 1186 733Q1186 1227 817 1227Q632 1227 538 1102.5Q444 978 444 733Z"/></g><g transform="translate(1661.166666666667 2048) scale (1 -1)"><path d="M184 0L184 1462L494 1462L494 256L1087 256L1087 0Z"/></g><g transform="translate(2818.166666666667 2048) scale (1 -1)"><path d="M1026 0L184 0L184 1462L1026 1462L1026 1208L494 1208L494 887L989 887L989 633L494 633L494 256L1026 256Z"/></g><g transform="translate(3965.166666666667 2048) scale (1 -1)"><path d="M1397 745Q1397 384 1191.5 192Q986 0 598 0L184 0L184 1462L643 1462Q1001 1462 1199 1273Q1397 1084 1397 745ZM1075 737Q1075 1208 659 1208L494 1208L494 256L627 256Q1075 256 1075 737Z"/></g><g transform="translate(5481.166666666667 2048) scale (1 -1)"><path d="M61 424L61 674L598 674L598 424Z"/></g><g transform="translate(6140.166666666667 2048) scale (1 -1)"><path d="M1397 745Q1397 384 1191.5 192Q986 0 598 0L184 0L184 1462L643 1462Q1001 1462 1199 1273Q1397 1084 1397 745ZM1075 737Q1075 1208 659 1208L494 1208L494 256L627 256Q1075 256 1075 737Z"/></g><g transform="translate(7656.166666666667 2048) scale (1 -1)"><path d="M147 1407Q147 1556 313 1556Q479 1556 479 1407Q479 1336 437.5 1296.5Q396 1257 313 1257Q147 1257 147 1407ZM465 0L160 0L160 1118L465 1118Z"/></g><g transform="translate(8281.166666666668 2048) scale (1 -1)"><path d="M940 332Q940 160 820.5 70Q701 -20 463 -20Q341 -20 255 -3.5Q169 13 94 45L94 297Q179 257 285.5 230Q392 203 473 203Q639 203 639 299Q639 335 617 357.5Q595 380 541 408.5Q487 437 397 475Q268 529 207.5 575Q147 621 119.5 680.5Q92 740 92 827Q92 976 207.5 1057.5Q323 1139 535 1139Q737 1139 928 1051L836 831Q752 867 679 890Q606 913 530 913Q395 913 395 840Q395 799 438.5 769Q482 739 629 680Q760 627 821 581Q882 535 911 475Q940 415 940 332Z"/></g><g transform="translate(9299.166666666668 2048) scale (1 -1)"><path d="M774 -20Q577 -20 465 123L449 123Q465 -17 465 -39L465 -492L160 -492L160 1118L408 1118L451 973L465 973Q572 1139 782 1139Q980 1139 1092 986Q1204 833 1204 561Q1204 382 1151.5 250Q1099 118 1002 49Q905 -20 774 -20ZM684 895Q571 895 519 825.5Q467 756 465 596L465 563Q465 383 518.5 305Q572 227 688 227Q893 227 893 565Q893 730 842.5 812.5Q792 895 684 895Z"/></g><g transform="translate(10595.166666666668 2048) scale (1 -1)"><path d="M465 0L160 0L160 1556L465 1556Z"/></g><g transform="translate(11220.166666666668 2048) scale (1 -1)"><path d="M870 0L811 152L803 152Q726 55 644.5 17.5Q563 -20 432 -20Q271 -20 178.5 72Q86 164 86 334Q86 512 210.5 596.5Q335 681 586 690L780 696L780 745Q780 915 606 915Q472 915 291 834L190 1040Q383 1141 618 1141Q843 1141 963 1043Q1083 945 1083 745L1083 0ZM780 518L662 514Q529 510 464 466Q399 422 399 332Q399 203 547 203Q653 203 716.5 264Q780 325 780 426Z"/></g><g transform="translate(12457.166666666668 2048) scale (1 -1)"><path d="M0 1118L334 1118L545 489Q572 407 582 295L588 295Q599 398 631 489L838 1118L1165 1118L692 -143Q627 -318 506.5 -405Q386 -492 225 -492Q146 -492 70 -475L70 -233Q125 -246 190 -246Q271 -246 331.5 -196.5Q392 -147 426 -47L444 8Z"/></g></g></g><g transform="translate(260 -104)"><rect x="0" y="0" width="98" height="28" rx="10" ry="10" style="fill:#E0E0E0;stroke:#707070;stroke-width:1px;"/><g transform="translate (5 5) scale(0.005859375)" style="fill:#4F4F4F;"><g transform="translate(35.33333333333303 2048) scale (1 -1)"><path d="M1608 0L1255 0L1057 768Q1046 809 1019.5 937.5Q993 1066 989 1110Q983 1056 959 936.5Q935 817 922 766L725 0L373 0L0 1462L305 1462L492 664Q541 443 563 281Q569 338 590.5 457.5Q612 577 631 643L844 1462L1137 1462L1350 643Q1364 588 1385 475Q1406 362 1417 281Q1427 359 1449 475.5Q1471 592 1489 664L1675 1462L1980 1462Z"/></g><g transform="translate(2015.333333333333 2048) scale (1 -1)"><path d="M623 922Q526 922 471 860.5Q416 799 408 686L836 686Q834 799 777 860.5Q720 922 623 922ZM666 -20Q396 -20 244 129Q92 278 92 551Q92 832 232.5 985.5Q373 1139 621 1139Q858 1139 990 1004Q1122 869 1122 631L1122 483L401 483Q406 353 478 280Q550 207 680 207Q781 207 871 228Q961 249 1059 295L1059 59Q979 19 888 -0.5Q797 -20 666 -20Z"/></g><g transform="translate(3225.333333333333 2048) scale (1 -1)"><path d="M782 1139Q980 1139 1092 984.5Q1204 830 1204 561Q1204 284 1088.5 132Q973 -20 774 -20Q577 -20 465 123L444 123L393 0L160 0L160 1556L465 1556L465 1194Q465 1125 453 973L465 973Q572 1139 782 1139ZM684 895Q571 895 519 825.5Q467 756 465 596L465 563Q465 383 518.5 305Q572 227 688 227Q782 227 837.5 313.5Q893 400 893 565Q893 730 837 812.5Q781 895 684 895Z"/></g><g transform="translate(4521.333333333333 2048) scale (1 -1)"><path d="M494 813L594 813Q741 813 811 862Q881 911 881 1016Q881 1120 809.5 1164Q738 1208 588 1208L494 1208ZM494 561L494 0L184 0L184 1462L610 1462Q908 1462 1051 1353.5Q1194 1245 1194 1024Q1194 895 1123 794.5Q1052 694 922 637L1352 0L1008 0L659 561Z"/></g><g transform="translate(5873.333333333333 2048) scale (1 -1)"><path d="M748 0L438 0L438 1204L41 1204L41 1462L1145 1462L1145 1204L748 1204Z"/></g><g transform="translate(7059.333333333333 2048) scale (1 -1)"><path d="M805 1225Q630 1225 534 1093.5Q438 962 438 727Q438 238 805 238Q959 238 1178 315L1178 55Q998 -20 776 -20Q457 -20 288 173.5Q119 367 119 729Q119 957 202 1128.5Q285 1300 440.5 1391.5Q596 1483 805 1483Q1018 1483 1233 1380L1133 1128Q1051 1167 968 1196Q885 1225 805 1225Z"/></g><g transform="translate(8364.333333333332 2048) scale (1 -1)"><path d="M61 424L61 674L598 674L598 424Z"/></g><g transform="translate(9023.333333333332 2048) scale (1 -1)"><path d="M805 1225Q630 1225 534 1093.5Q438 962 438 727Q438 238 805 238Q959 238 1178 315L1178 55Q998 -20 776 -20Q457 -20 288 173.5Q119 367 119 729Q119 957 202 1128.5Q285 1300 440.5 1391.5Q596 1483 805 1483Q1018 1483 1233 1380L1133 1128Q1051 1167 968 1196Q885 1225 805 1225Z"/></g><g transform="translate(10328.333333333332 2048) scale (1 -1)"><path d="M465 0L160 0L160 1556L465 1556Z"/></g><g transform="translate(10953.333333333332 2048) scale (1 -1)"><path d="M147 1407Q147 1556 313 1556Q479 1556 479 1407Q479 1336 437.5 1296.5Q396 1257 313 1257Q147 1257 147 1407ZM465 0L160 0L160 1118L465 1118Z"/></g><g transform="translate(11578.333333333332 2048) scale (1 -1)"><path d="M623 922Q526 922 471 860.5Q416 799 408 686L836 686Q834 799 777 860.5Q720 922 623 922ZM666 -20Q396 -20 244 129Q92 278 92 551Q92 832 232.5 985.5Q373 1139 621 1139Q858 1139 990 1004Q1122 869 1122 631L1122 483L401 483Q406 353 478 280Q550 207 680 207Q781 207 871 228Q961 249 1059 295L1059 59Q979 19 888 -0.5Q797 -20 666 -20Z"/></g><g transform="translate(12788.333333333332 2048) scale (1 -1)"><path d="M1192 0L887 0L887 653Q887 774 844 834.5Q801 895 707 895Q579 895 522 809.5Q465 724 465 526L465 0L160 0L160 1118L393 1118L434 975L451 975Q502 1056 591.5 1097.5Q681 1139 795 1139Q990 1139 1091 1033.5Q1192 928 1192 729Z"/></g><g transform="translate(14134.333333333332 2048) scale (1 -1)"><path d="M631 223Q711 223 823 258L823 31Q709 -20 543 -20Q360 -20 276.5 72.5Q193 165 193 350L193 889L47 889L47 1018L215 1120L303 1356L498 1356L498 1118L811 1118L811 889L498 889L498 350Q498 285 534.5 254Q571 223 631 223Z"/></g></g></g><g transform="translate(260 -56)"><rect x="0" y="0" width="101" height="28" rx="10" ry="10" style="fill:#E0E0E0;stroke:#707070;stroke-width:1px;"/><g transform="translate (5 5) scale(0.005859375)" style="fill:#4F4F4F;"><g transform="translate(22.83333333333303 2048) scale (1 -1)"><path d="M1047 406Q1047 208 904.5 94Q762 -20 508 -20Q274 -20 94 68L94 356Q242 290 344.5 263Q447 236 532 236Q634 236 688.5 275Q743 314 743 391Q743 434 719 467.5Q695 501 648.5 532Q602 563 459 631Q325 694 258 752Q191 810 151 887Q111 964 111 1067Q111 1261 242.5 1372Q374 1483 606 1483Q720 1483 823.5 1456Q927 1429 1040 1380L940 1139Q823 1187 746.5 1206Q670 1225 596 1225Q508 1225 461 1184Q414 1143 414 1077Q414 1036 433 1005.5Q452 975 493.5 946.5Q535 918 690 844Q895 746 971 647.5Q1047 549 1047 406Z"/></g><g transform="translate(1150.833333333333 2048) scale (1 -1)"><path d="M147 1407Q147 1556 313 1556Q479 1556 479 1407Q479 1336 437.5 1296.5Q396 1257 313 1257Q147 1257 147 1407ZM465 0L160 0L160 1118L465 1118Z"/></g><g transform="translate(1775.833333333333 2048) scale (1 -1)"><path d="M1161 0L856 0L856 653Q856 774 815.5 834.5Q775 895 688 895Q571 895 518 809Q465 723 465 526L465 0L160 0L160 1118L393 1118L434 975L451 975Q496 1052 581 1095.5Q666 1139 776 1139Q1027 1139 1116 975L1143 975Q1188 1053 1275.5 1096Q1363 1139 1473 1139Q1663 1139 1760.5 1041.5Q1858 944 1858 729L1858 0L1552 0L1552 653Q1552 774 1511.5 834.5Q1471 895 1384 895Q1272 895 1216.5 815Q1161 735 1161 561Z"/></g><g transform="translate(3786.833333333333 2048) scale (1 -1)"><path d="M586 1481Q796 1481 924.5 1385.5Q1053 1290 1053 1128Q1053 1016 991 928.5Q929 841 791 772Q955 684 1026.5 588.5Q1098 493 1098 379Q1098 199 957 89.5Q816 -20 586 -20Q346 -20 209 82Q72 184 72 371Q72 496 138.5 593Q205 690 352 764Q227 843 172 933Q117 1023 117 1130Q117 1287 247 1384Q377 1481 586 1481ZM358 389Q358 303 418 255Q478 207 582 207Q697 207 754 256.5Q811 306 811 387Q811 454 754.5 512.5Q698 571 571 637Q358 539 358 389ZM584 1255Q505 1255 456.5 1214.5Q408 1174 408 1106Q408 1046 446.5 998.5Q485 951 586 901Q684 947 723 995Q762 1043 762 1106Q762 1175 712 1215Q662 1255 584 1255Z"/></g><g transform="translate(4957.833333333333 2048) scale (1 -1)"><path d="M1096 731Q1096 348 970.5 164Q845 -20 584 -20Q331 -20 202.5 170Q74 360 74 731Q74 1118 199 1301.5Q324 1485 584 1485Q837 1485 966.5 1293Q1096 1101 1096 731ZM381 731Q381 462 427.5 345.5Q474 229 584 229Q692 229 740 347Q788 465 788 731Q788 1000 739.5 1117.5Q691 1235 584 1235Q475 1235 428 1117.5Q381 1000 381 731Z"/></g><g transform="translate(6128.833333333333 2048) scale (1 -1)"><path d="M1096 731Q1096 348 970.5 164Q845 -20 584 -20Q331 -20 202.5 170Q74 360 74 731Q74 1118 199 1301.5Q324 1485 584 1485Q837 1485 966.5 1293Q1096 1101 1096 731ZM381 731Q381 462 427.5 345.5Q474 229 584 229Q692 229 740 347Q788 465 788 731Q788 1000 739.5 1117.5Q691 1235 584 1235Q475 1235 428 1117.5Q381 1000 381 731Z"/></g><g transform="translate(7831.833333333333 2048) scale (1 -1)"><path d="M803 0L451 1147L442 1147Q461 797 461 680L461 0L184 0L184 1462L606 1462L952 344L958 344L1325 1462L1747 1462L1747 0L1458 0L1458 692Q1458 741 1459.5 805Q1461 869 1473 1145L1464 1145L1087 0Z"/></g><g transform="translate(9762.833333333332 2048) scale (1 -1)"><path d="M403 561Q403 395 457.5 310Q512 225 635 225Q757 225 810.5 309.5Q864 394 864 561Q864 727 810 810Q756 893 633 893Q511 893 457 810.5Q403 728 403 561ZM1176 561Q1176 288 1032 134Q888 -20 631 -20Q470 -20 347 50.5Q224 121 158 253Q92 385 92 561Q92 835 235 987Q378 1139 637 1139Q798 1139 921 1069Q1044 999 1110 868Q1176 737 1176 561Z"/></g><g transform="translate(11030.833333333332 2048) scale (1 -1)"><path d="M514 -20Q317 -20 204.5 133Q92 286 92 557Q92 832 206.5 985.5Q321 1139 522 1139Q733 1139 844 975L854 975Q831 1100 831 1198L831 1556L1137 1556L1137 0L903 0L844 145L831 145Q727 -20 514 -20ZM621 223Q738 223 792.5 291Q847 359 852 522L852 555Q852 735 796.5 813Q741 891 616 891Q514 891 457.5 804.5Q401 718 401 553Q401 388 458 305.5Q515 223 621 223Z"/></g><g transform="translate(12326.833333333332 2048) scale (1 -1)"><path d="M952 0L911 143L895 143Q846 65 756 22.5Q666 -20 551 -20Q354 -20 254 85.5Q154 191 154 389L154 1118L459 1118L459 465Q459 344 502 283.5Q545 223 639 223Q767 223 824 308.5Q881 394 881 592L881 1118L1186 1118L1186 0Z"/></g><g transform="translate(13672.833333333332 2048) scale (1 -1)"><path d="M465 0L160 0L160 1556L465 1556Z"/></g><g transform="translate(14297.833333333332 2048) scale (1 -1)"><path d="M623 922Q526 922 471 860.5Q416 799 408 686L836 686Q834 799 777 860.5Q720 922 623 922ZM666 -20Q396 -20 244 129Q92 278 92 551Q92 832 232.5 985.5Q373 1139 621 1139Q858 1139 990 1004Q1122 869 1122 631L1122 483L401 483Q406 353 478 280Q550 207 680 207Q781 207 871 228Q961 249 1059 295L1059 59Q979 19 888 -0.5Q797 -20 666 -20Z"/></g></g></g><g transform="translate(260 -8)"><rect x="0" y="0" width="108" height="28" rx="10" ry="10" style="fill:#E0E0E0;stroke:#707070;stroke-width:1px;"/><g transform="translate (5 5) scale(0.005859375)" style="fill:#4F4F4F;"><g transform="translate(51.66666666666606 2048) scale (1 -1)"><path d="M184 1462L639 1462Q950 1462 1090.5 1373.5Q1231 1285 1231 1092Q1231 961 1169.5 877Q1108 793 1006 776L1006 766Q1145 735 1206.5 650Q1268 565 1268 424Q1268 224 1123.5 112Q979 0 731 0L184 0ZM494 883L674 883Q800 883 856.5 922Q913 961 913 1051Q913 1135 851.5 1171.5Q790 1208 657 1208L494 1208ZM494 637L494 256L696 256Q824 256 885 305Q946 354 946 455Q946 637 686 637Z"/></g><g transform="translate(1427.666666666666 2048) scale (1 -1)"><path d="M184 0L184 1462L494 1462L494 256L1087 256L1087 0Z"/></g><g transform="translate(2584.666666666666 2048) scale (1 -1)"><path d="M1026 0L184 0L184 1462L1026 1462L1026 1208L494 1208L494 887L989 887L989 633L494 633L494 256L1026 256Z"/></g><g transform="translate(4263.666666666666 2048) scale (1 -1)"><path d="M739 821L1319 821L1319 63Q1178 17 1053.5 -1.5Q929 -20 799 -20Q468 -20 293.5 174.5Q119 369 119 733Q119 1087 321.5 1285Q524 1483 883 1483Q1108 1483 1317 1393L1214 1145Q1054 1225 881 1225Q680 1225 559 1090Q438 955 438 727Q438 489 535.5 363.5Q633 238 819 238Q916 238 1016 258L1016 563L739 563Z"/></g><g transform="translate(5746.666666666666 2048) scale (1 -1)"><path d="M1079 0L973 348L440 348L334 0L0 0L516 1468L895 1468L1413 0ZM899 608Q752 1081 733.5 1143Q715 1205 707 1241Q674 1113 518 608Z"/></g><g transform="translate(7159.666666666666 2048) scale (1 -1)"><path d="M748 0L438 0L438 1204L41 1204L41 1462L1145 1462L1145 1204L748 1204Z"/></g><g transform="translate(8345.666666666666 2048) scale (1 -1)"><path d="M748 0L438 0L438 1204L41 1204L41 1462L1145 1462L1145 1204L748 1204Z"/></g><g transform="translate(9531.666666666666 2048) scale (1 -1)"><path d="M61 424L61 674L598 674L598 424Z"/></g><g transform="translate(10190.666666666666 2048) scale (1 -1)"><path d="M1047 406Q1047 208 904.5 94Q762 -20 508 -20Q274 -20 94 68L94 356Q242 290 344.5 263Q447 236 532 236Q634 236 688.5 275Q743 314 743 391Q743 434 719 467.5Q695 501 648.5 532Q602 563 459 631Q325 694 258 752Q191 810 151 887Q111 964 111 1067Q111 1261 242.5 1372Q374 1483 606 1483Q720 1483 823.5 1456Q927 1429 1040 1380L940 1139Q823 1187 746.5 1206Q670 1225 596 1225Q508 1225 461 1184Q414 1143 414 1077Q414 1036 433 1005.5Q452 975 493.5 946.5Q535 918 690 844Q895 746 971 647.5Q1047 549 1047 406Z"/></g><g transform="translate(11318.666666666666 2048) scale (1 -1)"><path d="M623 922Q526 922 471 860.5Q416 799 408 686L836 686Q834 799 777 860.5Q720 922 623 922ZM666 -20Q396 -20 244 129Q92 278 92 551Q92 832 232.5 985.5Q373 1139 621 1139Q858 1139 990 1004Q1122 869 1122 631L1122 483L401 483Q406 353 478 280Q550 207 680 207Q781 207 871 228Q961 249 1059 295L1059 59Q979 19 888 -0.5Q797 -20 666 -20Z"/></g><g transform="translate(12528.666666666666 2048) scale (1 -1)"><path d="M784 1139Q846 1139 887 1130L864 844Q827 854 774 854Q628 854 546.5 779Q465 704 465 569L465 0L160 0L160 1118L391 1118L436 930L451 930Q503 1024 591.5 1081.5Q680 1139 784 1139Z"/></g><g transform="translate(13458.666666666666 2048) scale (1 -1)"><path d="M426 0L0 1118L319 1118L535 481Q568 377 578 252L586 252Q592 365 631 481L846 1118L1165 1118L739 0Z"/></g><g transform="translate(14623.666666666666 2048) scale (1 -1)"><path d="M623 922Q526 922 471 860.5Q416 799 408 686L836 686Q834 799 777 860.5Q720 922 623 922ZM666 -20Q396 -20 244 129Q92 278 92 551Q92 832 232.5 985.5Q373 1139 621 1139Q858 1139 990 1004Q1122 869 1122 631L1122 483L401 483Q406 353 478 280Q550 207 680 207Q781 207 871 228Q961 249 1059 295L1059 59Q979 19 888 -0.5Q797 -20 666 -20Z"/></g><g transform="translate(15833.666666666666 2048) scale (1 -1)"><path d="M784 1139Q846 1139 887 1130L864 844Q827 854 774 854Q628 854 546.5 779Q465 704 465 569L465 0L160 0L160 1118L391 1118L436 930L451 930Q503 1024 591.5 1081.5Q680 1139 784 1139Z"/></g></g></g><g transform="translate(237 101)"><rect x="0" y="0" width="105" height="28" rx="10" ry="10" style="fill:#E0E0E0;stroke:#707070;stroke-width:1px;"/><g transform="translate (5 5) scale(0.005859375)" style="fill:#4F4F4F;"><g transform="translate(82.16666666666697 2048) scale (1 -1)"><path d="M184 1462L639 1462Q950 1462 1090.5 1373.5Q1231 1285 1231 1092Q1231 961 1169.5 877Q1108 793 1006 776L1006 766Q1145 735 1206.5 650Q1268 565 1268 424Q1268 224 1123.5 112Q979 0 731 0L184 0ZM494 883L674 883Q800 883 856.5 922Q913 961 913 1051Q913 1135 851.5 1171.5Q790 1208 657 1208L494 1208ZM494 637L494 256L696 256Q824 256 885 305Q946 354 946 455Q946 637 686 637Z"/></g><g transform="translate(1458.166666666667 2048) scale (1 -1)"><path d="M184 0L184 1462L494 1462L494 256L1087 256L1087 0Z"/></g><g transform="translate(2615.166666666667 2048) scale (1 -1)"><path d="M1026 0L184 0L184 1462L1026 1462L1026 1208L494 1208L494 887L989 887L989 633L494 633L494 256L1026 256Z"/></g><g transform="translate(4294.166666666667 2048) scale (1 -1)"><path d="M739 821L1319 821L1319 63Q1178 17 1053.5 -1.5Q929 -20 799 -20Q468 -20 293.5 174.5Q119 369 119 733Q119 1087 321.5 1285Q524 1483 883 1483Q1108 1483 1317 1393L1214 1145Q1054 1225 881 1225Q680 1225 559 1090Q438 955 438 727Q438 489 535.5 363.5Q633 238 819 238Q916 238 1016 258L1016 563L739 563Z"/></g><g transform="translate(5777.166666666667 2048) scale (1 -1)"><path d="M1079 0L973 348L440 348L334 0L0 0L516 1468L895 1468L1413 0ZM899 608Q752 1081 733.5 1143Q715 1205 707 1241Q674 1113 518 608Z"/></g><g transform="translate(7190.166666666667 2048) scale (1 -1)"><path d="M748 0L438 0L438 1204L41 1204L41 1462L1145 1462L1145 1204L748 1204Z"/></g><g transform="translate(8376.166666666668 2048) scale (1 -1)"><path d="M748 0L438 0L438 1204L41 1204L41 1462L1145 1462L1145 1204L748 1204Z"/></g><g transform="translate(9562.166666666668 2048) scale (1 -1)"><path d="M61 424L61 674L598 674L598 424Z"/></g><g transform="translate(10221.166666666668 2048) scale (1 -1)"><path d="M805 1225Q630 1225 534 1093.5Q438 962 438 727Q438 238 805 238Q959 238 1178 315L1178 55Q998 -20 776 -20Q457 -20 288 173.5Q119 367 119 729Q119 957 202 1128.5Q285 1300 440.5 1391.5Q596 1483 805 1483Q1018 1483 1233 1380L1133 1128Q1051 1167 968 1196Q885 1225 805 1225Z"/></g><g transform="translate(11526.166666666668 2048) scale (1 -1)"><path d="M465 0L160 0L160 1556L465 1556Z"/></g><g transform="translate(12151.166666666668 2048) scale (1 -1)"><path d="M147 1407Q147 1556 313 1556Q479 1556 479 1407Q479 1336 437.5 1296.5Q396 1257 313 1257Q147 1257 147 1407ZM465 0L160 0L160 1118L465 1118Z"/></g><g transform="translate(12776.166666666668 2048) scale (1 -1)"><path d="M623 922Q526 922 471 860.5Q416 799 408 686L836 686Q834 799 777 860.5Q720 922 623 922ZM666 -20Q396 -20 244 129Q92 278 92 551Q92 832 232.5 985.5Q373 1139 621 1139Q858 1139 990 1004Q1122 869 1122 631L1122 483L401 483Q406 353 478 280Q550 207 680 207Q781 207 871 228Q961 249 1059 295L1059 59Q979 19 888 -0.5Q797 -20 666 -20Z"/></g><g transform="translate(13986.166666666668 2048) scale (1 -1)"><path d="M1192 0L887 0L887 653Q887 774 844 834.5Q801 895 707 895Q579 895 522 809.5Q465 724 465 526L465 0L160 0L160 1118L393 1118L434 975L451 975Q502 1056 591.5 1097.5Q681 1139 795 1139Q990 1139 1091 1033.5Q1192 928 1192 729Z"/></g><g transform="translate(15332.166666666668 2048) scale (1 -1)"><path d="M631 223Q711 223 823 258L823 31Q709 -20 543 -20Q360 -20 276.5 72.5Q193 165 193 350L193 889L47 889L47 1018L215 1120L303 1356L498 1356L498 1118L811 1118L811 889L498 889L498 350Q498 285 534.5 254Q571 223 631 223Z"/></g></g></g><g transform="translate(159 125)"><rect x="0" y="0" width="58" height="28" rx="10" ry="10" style="fill:#E0E0E0;stroke:#707070;stroke-width:1px;"/><g transform="translate (5 5) scale(0.005859375)" style="fill:#4F4F4F;"><g transform="translate(72.5 2048) scale (1 -1)"><path d="M147 1407Q147 1556 313 1556Q479 1556 479 1407Q479 1336 437.5 1296.5Q396 1257 313 1257Q147 1257 147 1407ZM465 0L160 0L160 1118L465 1118Z"/></g><g transform="translate(697.5 2048) scale (1 -1)"><path d="M1511 733Q1511 370 1331 175Q1151 -20 815 -20Q479 -20 299 175Q119 370 119 735Q119 1100 299.5 1292.5Q480 1485 817 1485Q1154 1485 1332.5 1291Q1511 1097 1511 733ZM444 733Q444 488 537 364Q630 240 815 240Q1186 240 1186 733Q1186 1227 817 1227Q632 1227 538 1102.5Q444 978 444 733Z"/></g><g transform="translate(2327.5 2048) scale (1 -1)"><path d="M1047 406Q1047 208 904.5 94Q762 -20 508 -20Q274 -20 94 68L94 356Q242 290 344.5 263Q447 236 532 236Q634 236 688.5 275Q743 314 743 391Q743 434 719 467.5Q695 501 648.5 532Q602 563 459 631Q325 694 258 752Q191 810 151 887Q111 964 111 1067Q111 1261 242.5 1372Q374 1483 606 1483Q720 1483 823.5 1456Q927 1429 1040 1380L940 1139Q823 1187 746.5 1206Q670 1225 596 1225Q508 1225 461 1184Q414 1143 414 1077Q414 1036 433 1005.5Q452 975 493.5 946.5Q535 918 690 844Q895 746 971 647.5Q1047 549 1047 406Z"/></g><g transform="translate(3455.5 2048) scale (1 -1)"><path d="M61 424L61 674L598 674L598 424Z"/></g><g transform="translate(4114.5 2048) scale (1 -1)"><path d="M1079 0L973 348L440 348L334 0L0 0L516 1468L895 1468L1413 0ZM899 608Q752 1081 733.5 1143Q715 1205 707 1241Q674 1113 518 608Z"/></g><g transform="translate(5527.5 2048) scale (1 -1)"><path d="M774 -20Q577 -20 465 123L449 123Q465 -17 465 -39L465 -492L160 -492L160 1118L408 1118L451 973L465 973Q572 1139 782 1139Q980 1139 1092 986Q1204 833 1204 561Q1204 382 1151.5 250Q1099 118 1002 49Q905 -20 774 -20ZM684 895Q571 895 519 825.5Q467 756 465 596L465 563Q465 383 518.5 305Q572 227 688 227Q893 227 893 565Q893 730 842.5 812.5Q792 895 684 895Z"/></g><g transform="translate(6823.5 2048) scale (1 -1)"><path d="M774 -20Q577 -20 465 123L449 123Q465 -17 465 -39L465 -492L160 -492L160 1118L408 1118L451 973L465 973Q572 1139 782 1139Q980 1139 1092 986Q1204 833 1204 561Q1204 382 1151.5 250Q1099 118 1002 49Q905 -20 774 -20ZM684 895Q571 895 519 825.5Q467 756 465 596L465 563Q465 383 518.5 305Q572 227 688 227Q893 227 893 565Q893 730 842.5 812.5Q792 895 684 895Z"/></g></g></g><g transform="translate(-328 -112)"><rect x="0" y="0" width="87" height="28" rx="10" ry="10" style="fill:#E0E0E0;stroke:#707070;stroke-width:1px;"/><g transform="translate (5 5) scale(0.005859375)" style="fill:#4F4F4F;"><g transform="translate(79.16666666666697 2048) scale (1 -1)"><path d="M748 0L438 0L438 1204L41 1204L41 1462L1145 1462L1145 1204L748 1204Z"/></g><g transform="translate(1265.166666666667 2048) scale (1 -1)"><path d="M1374 1462L1374 516Q1374 354 1301.5 232Q1229 110 1092 45Q955 -20 768 -20Q486 -20 330 124.5Q174 269 174 520L174 1462L483 1462L483 567Q483 398 551 319Q619 240 776 240Q928 240 996.5 319.5Q1065 399 1065 569L1065 1462Z"/></g><g transform="translate(2813.166666666667 2048) scale (1 -1)"><path d="M494 813L594 813Q741 813 811 862Q881 911 881 1016Q881 1120 809.5 1164Q738 1208 588 1208L494 1208ZM494 561L494 0L184 0L184 1462L610 1462Q908 1462 1051 1353.5Q1194 1245 1194 1024Q1194 895 1123 794.5Q1052 694 922 637L1352 0L1008 0L659 561Z"/></g><g transform="translate(4165.166666666667 2048) scale (1 -1)"><path d="M1481 0L1087 0L451 1106L442 1106Q461 813 461 688L461 0L184 0L184 1462L575 1462L1210 367L1217 367Q1202 652 1202 770L1202 1462L1481 1462Z"/></g><g transform="translate(5830.166666666667 2048) scale (1 -1)"><path d="M61 424L61 674L598 674L598 424Z"/></g><g transform="translate(6489.166666666667 2048) scale (1 -1)"><path d="M1047 406Q1047 208 904.5 94Q762 -20 508 -20Q274 -20 94 68L94 356Q242 290 344.5 263Q447 236 532 236Q634 236 688.5 275Q743 314 743 391Q743 434 719 467.5Q695 501 648.5 532Q602 563 459 631Q325 694 258 752Q191 810 151 887Q111 964 111 1067Q111 1261 242.5 1372Q374 1483 606 1483Q720 1483 823.5 1456Q927 1429 1040 1380L940 1139Q823 1187 746.5 1206Q670 1225 596 1225Q508 1225 461 1184Q414 1143 414 1077Q414 1036 433 1005.5Q452 975 493.5 946.5Q535 918 690 844Q895 746 971 647.5Q1047 549 1047 406Z"/></g><g transform="translate(7617.166666666667 2048) scale (1 -1)"><path d="M623 922Q526 922 471 860.5Q416 799 408 686L836 686Q834 799 777 860.5Q720 922 623 922ZM666 -20Q396 -20 244 129Q92 278 92 551Q92 832 232.5 985.5Q373 1139 621 1139Q858 1139 990 1004Q1122 869 1122 631L1122 483L401 483Q406 353 478 280Q550 207 680 207Q781 207 871 228Q961 249 1059 295L1059 59Q979 19 888 -0.5Q797 -20 666 -20Z"/></g><g transform="translate(8827.166666666668 2048) scale (1 -1)"><path d="M784 1139Q846 1139 887 1130L864 844Q827 854 774 854Q628 854 546.5 779Q465 704 465 569L465 0L160 0L160 1118L391 1118L436 930L451 930Q503 1024 591.5 1081.5Q680 1139 784 1139Z"/></g><g transform="translate(9757.166666666668 2048) scale (1 -1)"><path d="M426 0L0 1118L319 1118L535 481Q568 377 578 252L586 252Q592 365 631 481L846 1118L1165 1118L739 0Z"/></g><g transform="translate(10922.166666666668 2048) scale (1 -1)"><path d="M623 922Q526 922 471 860.5Q416 799 408 686L836 686Q834 799 777 860.5Q720 922 623 922ZM666 -20Q396 -20 244 129Q92 278 92 551Q92 832 232.5 985.5Q373 1139 621 1139Q858 1139 990 1004Q1122 869 1122 631L1122 483L401 483Q406 353 478 280Q550 207 680 207Q781 207 871 228Q961 249 1059 295L1059 59Q979 19 888 -0.5Q797 -20 666 -20Z"/></g><g transform="translate(12132.166666666668 2048) scale (1 -1)"><path d="M784 1139Q846 1139 887 1130L864 844Q827 854 774 854Q628 854 546.5 779Q465 704 465 569L465 0L160 0L160 1118L391 1118L436 930L451 930Q503 1024 591.5 1081.5Q680 1139 784 1139Z"/></g></g></g><g transform="translate(-350 -64)"><rect x="0" y="0" width="109" height="28" rx="10" ry="10" style="fill:#E0E0E0;stroke:#707070;stroke-width:1px;"/><g transform="translate (5 5) scale(0.005859375)" style="fill:#4F4F4F;"><g transform="translate(70 2048) scale (1 -1)"><path d="M1047 406Q1047 208 904.5 94Q762 -20 508 -20Q274 -20 94 68L94 356Q242 290 344.5 263Q447 236 532 236Q634 236 688.5 275Q743 314 743 391Q743 434 719 467.5Q695 501 648.5 532Q602 563 459 631Q325 694 258 752Q191 810 151 887Q111 964 111 1067Q111 1261 242.5 1372Q374 1483 606 1483Q720 1483 823.5 1456Q927 1429 1040 1380L940 1139Q823 1187 746.5 1206Q670 1225 596 1225Q508 1225 461 1184Q414 1143 414 1077Q414 1036 433 1005.5Q452 975 493.5 946.5Q535 918 690 844Q895 746 971 647.5Q1047 549 1047 406Z"/></g><g transform="translate(1198 2048) scale (1 -1)"><path d="M147 1407Q147 1556 313 1556Q479 1556 479 1407Q479 1336 437.5 1296.5Q396 1257 313 1257Q147 1257 147 1407ZM465 0L160 0L160 1118L465 1118Z"/></g><g transform="translate(1823 2048) scale (1 -1)"><path d="M623 219Q746 219 799 289.5Q852 360 852 518L852 555Q852 734 796.5 812.5Q741 891 618 891Q403 891 403 553Q403 385 456.5 302Q510 219 623 219ZM1137 -2Q1137 -243 996.5 -367.5Q856 -492 578 -492Q333 -492 160 -426L160 -182Q363 -268 596 -268Q831 -268 831 -14L831 8L840 145L831 145Q724 -20 514 -20Q313 -20 202.5 135Q92 290 92 557Q92 832 206.5 985.5Q321 1139 522 1139Q728 1139 846 975L854 975L879 1118L1137 1118Z"/></g><g transform="translate(3119 2048) scale (1 -1)"><path d="M1192 0L887 0L887 653Q887 774 844 834.5Q801 895 707 895Q579 895 522 809.5Q465 724 465 526L465 0L160 0L160 1118L393 1118L434 975L451 975Q502 1056 591.5 1097.5Q681 1139 795 1139Q990 1139 1091 1033.5Q1192 928 1192 729Z"/></g><g transform="translate(4465 2048) scale (1 -1)"><path d="M870 0L811 152L803 152Q726 55 644.5 17.5Q563 -20 432 -20Q271 -20 178.5 72Q86 164 86 334Q86 512 210.5 596.5Q335 681 586 690L780 696L780 745Q780 915 606 915Q472 915 291 834L190 1040Q383 1141 618 1141Q843 1141 963 1043Q1083 945 1083 745L1083 0ZM780 518L662 514Q529 510 464 466Q399 422 399 332Q399 203 547 203Q653 203 716.5 264Q780 325 780 426Z"/></g><g transform="translate(5702 2048) scale (1 -1)"><path d="M465 0L160 0L160 1556L465 1556Z"/></g><g transform="translate(6327 2048) scale (1 -1)"><path d="M147 1407Q147 1556 313 1556Q479 1556 479 1407Q479 1336 437.5 1296.5Q396 1257 313 1257Q147 1257 147 1407ZM465 0L160 0L160 1118L465 1118Z"/></g><g transform="translate(6952 2048) scale (1 -1)"><path d="M1192 0L887 0L887 653Q887 774 844 834.5Q801 895 707 895Q579 895 522 809.5Q465 724 465 526L465 0L160 0L160 1118L393 1118L434 975L451 975Q502 1056 591.5 1097.5Q681 1139 795 1139Q990 1139 1091 1033.5Q1192 928 1192 729Z"/></g><g transform="translate(8298 2048) scale (1 -1)"><path d="M623 219Q746 219 799 289.5Q852 360 852 518L852 555Q852 734 796.5 812.5Q741 891 618 891Q403 891 403 553Q403 385 456.5 302Q510 219 623 219ZM1137 -2Q1137 -243 996.5 -367.5Q856 -492 578 -492Q333 -492 160 -426L160 -182Q363 -268 596 -268Q831 -268 831 -14L831 8L840 145L831 145Q724 -20 514 -20Q313 -20 202.5 135Q92 290 92 557Q92 832 206.5 985.5Q321 1139 522 1139Q728 1139 846 975L854 975L879 1118L1137 1118Z"/></g><g transform="translate(9594 2048) scale (1 -1)"><path d="M61 424L61 674L598 674L598 424Z"/></g><g transform="translate(10253 2048) scale (1 -1)"><path d="M1047 406Q1047 208 904.5 94Q762 -20 508 -20Q274 -20 94 68L94 356Q242 290 344.5 263Q447 236 532 236Q634 236 688.5 275Q743 314 743 391Q743 434 719 467.5Q695 501 648.5 532Q602 563 459 631Q325 694 258 752Q191 810 151 887Q111 964 111 1067Q111 1261 242.5 1372Q374 1483 606 1483Q720 1483 823.5 1456Q927 1429 1040 1380L940 1139Q823 1187 746.5 1206Q670 1225 596 1225Q508 1225 461 1184Q414 1143 414 1077Q414 1036 433 1005.5Q452 975 493.5 946.5Q535 918 690 844Q895 746 971 647.5Q1047 549 1047 406Z"/></g><g transform="translate(11381 2048) scale (1 -1)"><path d="M623 922Q526 922 471 860.5Q416 799 408 686L836 686Q834 799 777 860.5Q720 922 623 922ZM666 -20Q396 -20 244 129Q92 278 92 551Q92 832 232.5 985.5Q373 1139 621 1139Q858 1139 990 1004Q1122 869 1122 631L1122 483L401 483Q406 353 478 280Q550 207 680 207Q781 207 871 228Q961 249 1059 295L1059 59Q979 19 888 -0.5Q797 -20 666 -20Z"/></g><g transform="translate(12591 2048) scale (1 -1)"><path d="M784 1139Q846 1139 887 1130L864 844Q827 854 774 854Q628 854 546.5 779Q465 704 465 569L465 0L160 0L160 1118L391 1118L436 930L451 930Q503 1024 591.5 1081.5Q680 1139 784 1139Z"/></g><g transform="translate(13521 2048) scale (1 -1)"><path d="M426 0L0 1118L319 1118L535 481Q568 377 578 252L586 252Q592 365 631 481L846 1118L1165 1118L739 0Z"/></g><g transform="translate(14686 2048) scale (1 -1)"><path d="M623 922Q526 922 471 860.5Q416 799 408 686L836 686Q834 799 777 860.5Q720 922 623 922ZM666 -20Q396 -20 244 129Q92 278 92 551Q92 832 232.5 985.5Q373 1139 621 1139Q858 1139 990 1004Q1122 869 1122 631L1122 483L401 483Q406 353 478 280Q550 207 680 207Q781 207 871 228Q961 249 1059 295L1059 59Q979 19 888 -0.5Q797 -20 666 -20Z"/></g><g transform="translate(15896 2048) scale (1 -1)"><path d="M784 1139Q846 1139 887 1130L864 844Q827 854 774 854Q628 854 546.5 779Q465 704 465 569L465 0L160 0L160 1118L391 1118L436 930L451 930Q503 1024 591.5 1081.5Q680 1139 784 1139Z"/></g></g></g><g transform="translate(-401 -64)"><rect x="0" y="0" width="31" height="28" rx="10" ry="10" style="fill:#E0E0E0;stroke:#707070;stroke-width:1px;"/><g transform="translate (5 5) scale(0.005859375)" style="fill:#4F4F4F;"><g transform="translate(44 2048) scale (1 -1)"><path d="M1079 0L973 348L440 348L334 0L0 0L516 1468L895 1468L1413 0ZM899 608Q752 1081 733.5 1143Q715 1205 707 1241Q674 1113 518 608Z"/></g><g transform="translate(1457 2048) scale (1 -1)"><path d="M494 774L596 774Q739 774 810 830.5Q881 887 881 995Q881 1104 821.5 1156Q762 1208 635 1208L494 1208ZM1194 1006Q1194 770 1046.5 645Q899 520 627 520L494 520L494 0L184 0L184 1462L651 1462Q917 1462 1055.5 1347.5Q1194 1233 1194 1006Z"/></g><g transform="translate(2743 2048) scale (1 -1)"><path d="M731 0L66 0L66 176L244 258L244 1204L66 1286L66 1462L731 1462L731 1286L553 1204L553 258L731 176Z"/></g></g></g><g transform="translate(-326 -16)"><rect x="0" y="0" width="85" height="28" rx="10" ry="10" style="fill:#E0E0E0;stroke:#707070;stroke-width:1px;"/><g transform="translate (5 5) scale(0.005859375)" style="fill:#4F4F4F;"><g transform="translate(20.5 2048) scale (1 -1)"><path d="M1047 406Q1047 208 904.5 94Q762 -20 508 -20Q274 -20 94 68L94 356Q242 290 344.5 263Q447 236 532 236Q634 236 688.5 275Q743 314 743 391Q743 434 719 467.5Q695 501 648.5 532Q602 563 459 631Q325 694 258 752Q191 810 151 887Q111 964 111 1067Q111 1261 242.5 1372Q374 1483 606 1483Q720 1483 823.5 1456Q927 1429 1040 1380L940 1139Q823 1187 746.5 1206Q670 1225 596 1225Q508 1225 461 1184Q414 1143 414 1077Q414 1036 433 1005.5Q452 975 493.5 946.5Q535 918 690 844Q895 746 971 647.5Q1047 549 1047 406Z"/></g><g transform="translate(1148.5 2048) scale (1 -1)"><path d="M748 0L438 0L438 1204L41 1204L41 1462L1145 1462L1145 1204L748 1204Z"/></g><g transform="translate(2334.5 2048) scale (1 -1)"><path d="M1374 1462L1374 516Q1374 354 1301.5 232Q1229 110 1092 45Q955 -20 768 -20Q486 -20 330 124.5Q174 269 174 520L174 1462L483 1462L483 567Q483 398 551 319Q619 240 776 240Q928 240 996.5 319.5Q1065 399 1065 569L1065 1462Z"/></g><g transform="translate(3882.5 2048) scale (1 -1)"><path d="M1481 0L1087 0L451 1106L442 1106Q461 813 461 688L461 0L184 0L184 1462L575 1462L1210 367L1217 367Q1202 652 1202 770L1202 1462L1481 1462Z"/></g><g transform="translate(5547.5 2048) scale (1 -1)"><path d="M61 424L61 674L598 674L598 424Z"/></g><g transform="translate(6206.5 2048) scale (1 -1)"><path d="M1047 406Q1047 208 904.5 94Q762 -20 508 -20Q274 -20 94 68L94 356Q242 290 344.5 263Q447 236 532 236Q634 236 688.5 275Q743 314 743 391Q743 434 719 467.5Q695 501 648.5 532Q602 563 459 631Q325 694 258 752Q191 810 151 887Q111 964 111 1067Q111 1261 242.5 1372Q374 1483 606 1483Q720 1483 823.5 1456Q927 1429 1040 1380L940 1139Q823 1187 746.5 1206Q670 1225 596 1225Q508 1225 461 1184Q414 1143 414 1077Q414 1036 433 1005.5Q452 975 493.5 946.5Q535 918 690 844Q895 746 971 647.5Q1047 549 1047 406Z"/></g><g transform="translate(7334.5 2048) scale (1 -1)"><path d="M623 922Q526 922 471 860.5Q416 799 408 686L836 686Q834 799 777 860.5Q720 922 623 922ZM666 -20Q396 -20 244 129Q92 278 92 551Q92 832 232.5 985.5Q373 1139 621 1139Q858 1139 990 1004Q1122 869 1122 631L1122 483L401 483Q406 353 478 280Q550 207 680 207Q781 207 871 228Q961 249 1059 295L1059 59Q979 19 888 -0.5Q797 -20 666 -20Z"/></g><g transform="translate(8544.5 2048) scale (1 -1)"><path d="M784 1139Q846 1139 887 1130L864 844Q827 854 774 854Q628 854 546.5 779Q465 704 465 569L465 0L160 0L160 1118L391 1118L436 930L451 930Q503 1024 591.5 1081.5Q680 1139 784 1139Z"/></g><g transform="translate(9474.5 2048) scale (1 -1)"><path d="M426 0L0 1118L319 1118L535 481Q568 377 578 252L586 252Q592 365 631 481L846 1118L1165 1118L739 0Z"/></g><g transform="translate(10639.5 2048) scale (1 -1)"><path d="M623 922Q526 922 471 860.5Q416 799 408 686L836 686Q834 799 777 860.5Q720 922 623 922ZM666 -20Q396 -20 244 129Q92 278 92 551Q92 832 232.5 985.5Q373 1139 621 1139Q858 1139 990 1004Q1122 869 1122 631L1122 483L401 483Q406 353 478 280Q550 207 680 207Q781 207 871 228Q961 249 1059 295L1059 59Q979 19 888 -0.5Q797 -20 666 -20Z"/></g><g transform="translate(11849.5 2048) scale (1 -1)"><path d="M784 1139Q846 1139 887 1130L864 844Q827 854 774 854Q628 854 546.5 779Q465 704 465 569L465 0L160 0L160 1118L391 1118L436 930L451 930Q503 1024 591.5 1081.5Q680 1139 784 1139Z"/></g></g></g><g transform="translate(237 149)"><rect x="0" y="0" width="98" height="28" rx="10" ry="10" style="fill:#E0E0E0;stroke:#707070;stroke-width:1px;"/><g transform="translate (5 5) scale(0.005859375)" style="fill:#4F4F4F;"><g transform="translate(35.33333333333303 2048) scale (1 -1)"><path d="M1608 0L1255 0L1057 768Q1046 809 1019.5 937.5Q993 1066 989 1110Q983 1056 959 936.5Q935 817 922 766L725 0L373 0L0 1462L305 1462L492 664Q541 443 563 281Q569 338 590.5 457.5Q612 577 631 643L844 1462L1137 1462L1350 643Q1364 588 1385 475Q1406 362 1417 281Q1427 359 1449 475.5Q1471 592 1489 664L1675 1462L1980 1462Z"/></g><g transform="translate(2015.333333333333 2048) scale (1 -1)"><path d="M623 922Q526 922 471 860.5Q416 799 408 686L836 686Q834 799 777 860.5Q720 922 623 922ZM666 -20Q396 -20 244 129Q92 278 92 551Q92 832 232.5 985.5Q373 1139 621 1139Q858 1139 990 1004Q1122 869 1122 631L1122 483L401 483Q406 353 478 280Q550 207 680 207Q781 207 871 228Q961 249 1059 295L1059 59Q979 19 888 -0.5Q797 -20 666 -20Z"/></g><g transform="translate(3225.333333333333 2048) scale (1 -1)"><path d="M782 1139Q980 1139 1092 984.5Q1204 830 1204 561Q1204 284 1088.5 132Q973 -20 774 -20Q577 -20 465 123L444 123L393 0L160 0L160 1556L465 1556L465 1194Q465 1125 453 973L465 973Q572 1139 782 1139ZM684 895Q571 895 519 825.5Q467 756 465 596L465 563Q465 383 518.5 305Q572 227 688 227Q782 227 837.5 313.5Q893 400 893 565Q893 730 837 812.5Q781 895 684 895Z"/></g><g transform="translate(4521.333333333333 2048) scale (1 -1)"><path d="M494 813L594 813Q741 813 811 862Q881 911 881 1016Q881 1120 809.5 1164Q738 1208 588 1208L494 1208ZM494 561L494 0L184 0L184 1462L610 1462Q908 1462 1051 1353.5Q1194 1245 1194 1024Q1194 895 1123 794.5Q1052 694 922 637L1352 0L1008 0L659 561Z"/></g><g transform="translate(5873.333333333333 2048) scale (1 -1)"><path d="M748 0L438 0L438 1204L41 1204L41 1462L1145 1462L1145 1204L748 1204Z"/></g><g transform="translate(7059.333333333333 2048) scale (1 -1)"><path d="M805 1225Q630 1225 534 1093.5Q438 962 438 727Q438 238 805 238Q959 238 1178 315L1178 55Q998 -20 776 -20Q457 -20 288 173.5Q119 367 119 729Q119 957 202 1128.5Q285 1300 440.5 1391.5Q596 1483 805 1483Q1018 1483 1233 1380L1133 1128Q1051 1167 968 1196Q885 1225 805 1225Z"/></g><g transform="translate(8364.333333333332 2048) scale (1 -1)"><path d="M61 424L61 674L598 674L598 424Z"/></g><g transform="translate(9023.333333333332 2048) scale (1 -1)"><path d="M805 1225Q630 1225 534 1093.5Q438 962 438 727Q438 238 805 238Q959 238 1178 315L1178 55Q998 -20 776 -20Q457 -20 288 173.5Q119 367 119 729Q119 957 202 1128.5Q285 1300 440.5 1391.5Q596 1483 805 1483Q1018 1483 1233 1380L1133 1128Q1051 1167 968 1196Q885 1225 805 1225Z"/></g><g transform="translate(10328.333333333332 2048) scale (1 -1)"><path d="M465 0L160 0L160 1556L465 1556Z"/></g><g transform="translate(10953.333333333332 2048) scale (1 -1)"><path d="M147 1407Q147 1556 313 1556Q479 1556 479 1407Q479 1336 437.5 1296.5Q396 1257 313 1257Q147 1257 147 1407ZM465 0L160 0L160 1118L465 1118Z"/></g><g transform="translate(11578.333333333332 2048) scale (1 -1)"><path d="M623 922Q526 922 471 860.5Q416 799 408 686L836 686Q834 799 777 860.5Q720 922 623 922ZM666 -20Q396 -20 244 129Q92 278 92 551Q92 832 232.5 985.5Q373 1139 621 1139Q858 1139 990 1004Q1122 869 1122 631L1122 483L401 483Q406 353 478 280Q550 207 680 207Q781 207 871 228Q961 249 1059 295L1059 59Q979 19 888 -0.5Q797 -20 666 -20Z"/></g><g transform="translate(12788.333333333332 2048) scale (1 -1)"><path d="M1192 0L887 0L887 653Q887 774 844 834.5Q801 895 707 895Q579 895 522 809.5Q465 724 465 526L465 0L160 0L160 1118L393 1118L434 975L451 975Q502 1056 591.5 1097.5Q681 1139 795 1139Q990 1139 1091 1033.5Q1192 928 1192 729Z"/></g><g transform="translate(14134.333333333332 2048) scale (1 -1)"><path d="M631 223Q711 223 823 258L823 31Q709 -20 543 -20Q360 -20 276.5 72.5Q193 165 193 350L193 889L47 889L47 1018L215 1120L303 1356L498 1356L498 1118L811 1118L811 889L498 889L498 350Q498 285 534.5 254Q571 223 631 223Z"/></g></g></g></g></svg>