<?xml version="1.0" encoding="UTF-8"?>
<svg width="3508px" height="1625px" viewBox="0 0 3508 1625" version="1.1" xmlns="http://www.w3.org/2000/svg" xmlns:xlink="http://www.w3.org/1999/xlink">
    <!-- Generator: Sketch 51.3 (57544) - http://www.bohemiancoding.com/sketch -->
    <title>Blockschaltbild</title>
    <desc>Created with Sketch.</desc>
    <defs></defs>
    <g id="Blockschaltbild" stroke="none" stroke-width="1" fill="none" fill-rule="evenodd">
        <g id="Group" transform="translate(627.000000, 128.000000)">
            <path d="M1116,0 C1072.88533,0.0574 1033.46867,24.26585 1013.93233,62.66645 C1005.361,59.19375 996.245,57.4 987,57.4 C951.166667,57.4574 920.823,84.01925 916.064333,119.5642 C881.349,131.5034 858.057333,164.17835 858,200.9 C858,248.4272 896.528,287 944,287 L1202,287 C1249.472,287 1288,248.4272 1288,200.9 C1287.94267,164.35055 1264.88033,131.8478 1230.43733,119.7364 C1230.552,118.1005 1230.60933,116.47895 1230.66667,114.8 C1230.66667,51.4017 1179.32467,0 1116,0 Z" id="icons8-cloud" fill="#000000"></path>
            <path d="M31.2727273,1025 C13.9945455,1025 0,1038.99455 0,1056.27273 L0,1306.45455 C0,1323.73273 13.9945455,1337.72727 31.2727273,1337.72727 L156.363636,1337.72727 L156.363636,1150.09091 C156.363636,1115.51891 184.337091,1087.54545 218.909091,1087.54545 L218.909091,1056.27273 C218.909091,1038.99455 204.914545,1025 187.636364,1025 L31.2727273,1025 Z M218.909091,1118.81818 C201.630909,1118.81818 187.636364,1132.81273 187.636364,1150.09091 L187.636364,1337.72727 C187.636364,1355.00545 201.630909,1369 218.909091,1369 L312.727273,1369 C330.005455,1369 344,1355.00545 344,1337.72727 L344,1150.09091 C344,1132.81273 330.005455,1118.81818 312.727273,1118.81818 L218.909091,1118.81818 Z M109.454545,1275.18182 C118.070182,1275.18182 125.090909,1282.20255 125.090909,1290.81818 C125.090909,1299.43382 118.070182,1306.45455 109.454545,1306.45455 C100.838909,1306.45455 93.8181818,1299.43382 93.8181818,1290.81818 C93.8181818,1282.20255 100.838909,1275.18182 109.454545,1275.18182 Z M265.818182,1306.45455 C274.433818,1306.45455 281.454545,1313.47527 281.454545,1322.09091 C281.454545,1330.70655 274.433818,1337.72727 265.818182,1337.72727 C257.202545,1337.72727 250.181818,1330.70655 250.181818,1322.09091 C250.181818,1313.47527 257.202545,1306.45455 265.818182,1306.45455 Z" id="icons8-smartphone_tablet" fill="#000000"></path>
            <path d="M2110.16911,1076.02179 C2090.70034,1076.31476 2066.51726,1079.35918 2036.46042,1085.97028 C1916.25856,1112.49111 1905.60679,1152.0558 1912.67824,1184.00307 C1914.92072,1194.24454 1919.15085,1200.71552 1923.02422,1204.79173 C1926.96129,1208.93163 1933.1281,1209.97616 1938.26287,1207.37757 C1951.00421,1200.86838 1978.47456,1186.77999 1991.2159,1180.27079 C1995.44603,1178.07983 1998.08349,1173.85077 1998.23638,1169.16313 L1998.97538,1145.38101 C1999.12828,1140.00551 2002.46651,1135.38156 2007.4866,1133.63643 C2016.20168,1130.5538 2030.5357,1125.82795 2044.56392,1122.69436 C2058.60488,1119.61173 2073.63967,1117.86661 2082.78796,1117.02589 C2088.06288,1116.47815 2093.09571,1119.30602 2095.47834,1124.08282 L2106.13011,1145.33005 C2108.27065,1149.5209 2112.50078,1152.24687 2117.24056,1152.45068 L2176.61524,1154.74355 C2182.38707,1154.93462 2187.56005,1151.40615 2189.40755,1145.92875 C2191.19134,1140.65515 2192.28709,1132.99953 2190.04462,1122.79627 C2184.71873,1098.81033 2168.60093,1075.18107 2110.16911,1076.02179 Z M2191.29327,1177.92698 C2184.27279,1177.92698 2178.55192,1183.6464 2178.55192,1190.66512 C2178.55192,1197.68384 2184.27279,1203.40327 2191.29327,1203.40327 C2198.31375,1203.40327 2204.03461,1197.68384 2204.03461,1190.66512 C2204.03461,1183.6464 2198.31375,1177.92698 2191.29327,1177.92698 Z M2038.19325,1190.46131 C2031.18551,1190.61417 2025.55383,1196.38455 2025.65576,1203.40327 L2025.65576,1216.14142 C2025.65576,1216.14142 2025.65576,1216.19237 2025.65576,1216.19237 C2017.19551,1216.34523 2009.07927,1219.22405 2002.46651,1224.49765 L1964.9305,1254.50872 C1954.82662,1262.57197 1948.16289,1274.21464 1946.3154,1287.04196 L1938.26287,1343.52291 L1936.46634,1343.52291 C1931.89219,1343.47195 1927.6111,1345.86673 1925.26669,1349.84103 C1922.97325,1353.82807 1922.97325,1358.69404 1925.26669,1362.68108 C1927.6111,1366.65538 1931.89219,1369.05016 1936.46634,1368.9992 L2191.29327,1368.9992 C2195.86741,1369.05016 2200.1485,1366.65538 2202.49291,1362.68108 C2204.78635,1358.69404 2204.78635,1353.82807 2202.49291,1349.84103 C2200.1485,1345.86673 2195.86741,1343.47195 2191.29327,1343.52291 L2189.49674,1343.52291 L2181.39324,1287.04196 C2179.59671,1274.25285 2172.93299,1262.57197 2162.8291,1254.50872 L2125.34406,1224.49765 C2118.7313,1219.22405 2110.5641,1216.34523 2102.10384,1216.19237 C2102.10384,1216.19237 2102.10384,1216.14142 2102.10384,1216.14142 L2102.10384,1203.40327 C2102.15481,1199.96397 2100.80422,1196.63932 2098.37063,1194.19359 C2095.93703,1191.7606 2092.5988,1190.41036 2089.15863,1190.46131 C2082.15089,1190.61417 2076.51922,1196.38455 2076.62115,1203.40327 L2076.62115,1216.14142 L2051.13846,1216.14142 L2051.13846,1203.40327 C2051.18942,1199.96397 2049.83884,1196.63932 2047.40524,1194.19359 C2044.97164,1191.7606 2041.63341,1190.41036 2038.19325,1190.46131 Z M2242.25865,1190.66512 C2235.23817,1190.66512 2229.51731,1196.38455 2229.51731,1203.40327 C2229.51731,1210.42199 2235.23817,1216.14142 2242.25865,1216.14142 C2249.27914,1216.14142 2255,1210.42199 2255,1203.40327 C2255,1196.38455 2249.27914,1190.66512 2242.25865,1190.66512 Z M2204.03461,1228.87957 C2197.01413,1228.87957 2191.29327,1234.599 2191.29327,1241.61772 C2191.29327,1248.63644 2197.01413,1254.35587 2204.03461,1254.35587 C2211.0551,1254.35587 2216.77596,1248.63644 2216.77596,1241.61772 C2216.77596,1234.599 2211.0551,1228.87957 2204.03461,1228.87957 Z M2038.39711,1254.35587 C2045.41759,1254.35587 2051.13846,1260.0753 2051.13846,1267.09401 C2051.13846,1274.11273 2045.41759,1279.83216 2038.39711,1279.83216 C2031.37663,1279.83216 2025.65576,1274.11273 2025.65576,1267.09401 C2025.65576,1260.0753 2031.37663,1254.35587 2038.39711,1254.35587 Z M2089.36249,1254.35587 C2096.38298,1254.35587 2102.10384,1260.0753 2102.10384,1267.09401 C2102.10384,1274.11273 2096.38298,1279.83216 2089.36249,1279.83216 C2082.34201,1279.83216 2076.62115,1274.11273 2076.62115,1267.09401 C2076.62115,1260.0753 2082.34201,1254.35587 2089.36249,1254.35587 Z M2242.25865,1254.35587 C2235.23817,1254.35587 2229.51731,1260.0753 2229.51731,1267.09401 C2229.51731,1274.11273 2235.23817,1279.83216 2242.25865,1279.83216 C2249.27914,1279.83216 2255,1274.11273 2255,1267.09401 C2255,1260.0753 2249.27914,1254.35587 2242.25865,1254.35587 Z M2038.39711,1305.30846 C2045.41759,1305.30846 2051.13846,1311.02789 2051.13846,1318.04661 C2051.13846,1325.06533 2045.41759,1330.78476 2038.39711,1330.78476 C2031.37663,1330.78476 2025.65576,1325.06533 2025.65576,1318.04661 C2025.65576,1311.02789 2031.37663,1305.30846 2038.39711,1305.30846 Z M2089.36249,1305.30846 C2096.38298,1305.30846 2102.10384,1311.02789 2102.10384,1318.04661 C2102.10384,1325.06533 2096.38298,1330.78476 2089.36249,1330.78476 C2082.34201,1330.78476 2076.62115,1325.06533 2076.62115,1318.04661 C2076.62115,1311.02789 2082.34201,1305.30846 2089.36249,1305.30846 Z" id="icons8-ringing_phone" fill="#000000"></path>
            <path d="M792.690959,1188.29142 L1680.45725,1188.29142 L1650.13973,1157.88827 C1647.72759,1155.58011 1646.76089,1152.11786 1647.62631,1148.90489 C1648.4457,1145.66423 1650.96833,1143.13448 1654.19987,1142.31277 C1657.40378,1141.4449 1660.85628,1142.41433 1663.15794,1144.83329 C1693.31895,1175.07949 1708.41173,1190.20258 1708.43628,1190.20258 C1710.70112,1191.96602 1712.03608,1194.67119 1711.99926,1197.52408 C1711.99926,1200.40467 1710.66429,1203.10984 1708.36263,1204.88251 L1663.15794,1250.21488 C1661.50074,1251.95062 1659.23591,1252.95698 1656.83297,1252.99391 C1653.01221,1253.1324 1649.55971,1250.8981 1648.08665,1247.36199 C1646.61358,1243.87204 1647.40535,1239.82814 1650.13973,1237.1599 L1680.45725,1206.75674 L789.36921,1206.75674 L789.36921,1206.70858 L575.542749,1206.70858 L605.86027,1237.11173 C608.272415,1239.41989 609.239114,1242.88214 608.373688,1246.09511 C607.554295,1249.33577 605.031671,1251.86552 601.800135,1252.68723 C598.596218,1253.5551 595.143722,1252.58567 592.842058,1250.16671 C562.681049,1219.92051 547.58827,1204.79742 547.563719,1204.79742 C545.298881,1203.03398 543.963916,1200.32881 544.000743,1197.47592 C544.000743,1194.59533 545.335708,1191.89016 547.637372,1190.11749 L592.842058,1144.78512 C594.499256,1143.04938 596.764093,1142.04302 599.167031,1142.00609 C602.987793,1141.8676 606.44029,1144.1019 607.913355,1147.63801 C609.38642,1151.12796 608.594648,1155.17186 605.86027,1157.8401 L575.542749,1188.24326 L792.690959,1188.24326 L792.690959,1188.29142 Z" id="Combined-Shape" fill="#474747"></path>
            <path d="M1564.1575,637.16842 L1884.4786,957.471115 C1894.71406,969.676705 1899.83758,975.785291 1899.84916,975.796871 C1903.82962,980.714694 1902.32076,984.314229 1900.28184,986.30092 C1898.24944,988.333206 1895.39626,989.297239 1892.51702,988.919442 L1828.54843,988.919442 C1826.15124,988.971552 1823.83873,988.07917 1822.11249,986.405139 C1819.31142,983.799644 1818.44504,979.780668 1819.89769,976.243708 C1821.31777,972.739317 1824.73116,970.446481 1828.54843,970.498591 L1871.45038,970.498591 L1538.681,637.748345 L1538.71499,637.714362 L1397.5214,496.528885 L1380.52926,477.756292 C1378.3736,474.212726 1379.67924,469.685771 1381.71816,467.69908 C1383.75056,465.666794 1386.60374,464.702761 1389.48298,465.080558 L1453.45157,465.080558 C1455.84876,465.028448 1458.16127,465.92083 1459.88751,467.594861 C1462.68858,470.200356 1463.55496,474.219332 1462.10231,477.756292 C1460.68223,481.260683 1457.26884,483.553519 1453.45157,483.501409 L1410.54962,483.501409 L1564.19148,637.134437 L1564.1575,637.16842 Z" id="Combined-Shape" fill="#474747"></path>
            <path d="M486.277538,636.628846 L806.598645,956.931541 C816.834105,969.137131 821.957626,975.245717 821.969206,975.257297 C825.949659,980.17512 824.440799,983.774655 822.401882,985.761346 C820.369479,987.793632 817.516297,988.757665 814.63706,988.379868 L750.668474,988.379868 C748.271281,988.431978 745.958771,987.539596 744.232531,985.865565 C741.431463,983.26007 740.565086,979.241094 742.017733,975.704134 C743.437809,972.199743 746.851204,969.906907 750.668474,969.959017 L793.57042,969.959017 L460.801046,637.208771 L460.83503,637.174788 L319.641438,495.989311 L302.649297,477.216718 C300.49364,473.673152 301.799284,469.146197 303.838201,467.159506 C305.870604,465.12722 308.723785,464.163187 311.603023,464.540984 L375.571609,464.540984 C377.968802,464.488874 380.281312,465.381256 382.007552,467.055287 C384.80862,469.660782 385.674997,473.679758 384.22235,477.216718 C382.802274,480.721109 379.388879,483.013945 375.571609,482.961835 L332.669663,482.961835 L486.311522,636.594863 L486.277538,636.628846 Z" id="Combined-Shape" fill="#474747" transform="translate(563.000000, 726.460426) rotate(-90.000000) translate(-563.000000, -726.460426) "></path>
        </g>
        <text id="Backend" font-family="SanFranciscoText-Bold, San Francisco Text" font-size="80" font-weight="bold" letter-spacing="-0.8" fill="#000000">
            <tspan x="1544" y="508">Backend</tspan>
        </text>
        <text id="GSM-Gateway" font-family="SanFranciscoText-Bold, San Francisco Text" font-size="80" font-weight="bold" letter-spacing="-0.8" fill="#000000">
            <tspan x="2437" y="1613">GSM-Gateway</tspan>
        </text>
        <text id="GSM-to-VoIP" font-family="SanFranciscoText-Bold, San Francisco Text" font-size="60" font-weight="bold" letter-spacing="-0.6" fill="#000000">
            <tspan x="2628" y="1159">GSM to VoIP</tspan>
        </text>
        <text id="Encrypted-Peer-to-Pe" font-family="SanFranciscoText-Bold, San Francisco Text" font-size="50" font-weight="bold" letter-spacing="-0.5" fill="#474747">
            <tspan x="1347" y="1283">Encrypted Peer to Peer Connection</tspan>
        </text>
        <text id="REST-API-requests-to" transform="translate(2332.485588, 848.485588) rotate(45.000000) translate(-2332.485588, -848.485588) " font-family="SanFranciscoText-Bold, San Francisco Text" font-size="40" font-weight="bold" letter-spacing="-0.5" fill="#474747">
            <tspan x="2055.98559" y="862.485588">REST API requests to backend</tspan>
        </text>
        <text id="REST-API-requests-to" transform="translate(1185.485588, 945.485588) rotate(-45.000000) translate(-1185.485588, -945.485588) " font-family="SanFranciscoText-Bold, San Francisco Text" font-size="40" font-weight="bold" letter-spacing="-0.5" fill="#474747">
            <tspan x="908.985588" y="959.485588">REST API requests to backend</tspan>
        </text>
        <text id="SSE-to-reach-gateway" transform="translate(2144.941432, 813.941432) rotate(45.000000) translate(-2144.941432, -813.941432) " font-family="SanFranciscoText-Bold, San Francisco Text" font-size="40" font-weight="bold" letter-spacing="-0.5" fill="#474747">
            <tspan x="1832.44143" y="827.941432">SSE to reach gateway in real-time</tspan>
        </text>
        <text id="APN-Push-notificatio" transform="translate(1202.265548, 766.617316) rotate(-45.000000) translate(-1202.265548, -766.617316) " font-family="SanFranciscoText-Bold, San Francisco Text" font-size="40" font-weight="bold" letter-spacing="-0.5" fill="#474747">
            <tspan x="865.265548" y="780.617316">APN Push notifications to notify app</tspan>
        </text>
        <text id="for-VoIP-calls-/-dat" font-family="SanFranciscoText-Bold, San Francisco Text" font-size="50" font-weight="bold" letter-spacing="-0.5" fill="#474747">
            <tspan x="1425" y="1407">for VoIP calls / data transfer </tspan>
        </text>
        <text id="iOS-(iPhone/iPad)" font-family="SanFranciscoText-Bold, San Francisco Text" font-size="60" font-weight="bold" letter-spacing="-0.6" fill="#000000">
            <tspan x="523" y="1118">iOS </tspan>
            <tspan x="630.580469" y="1118" font-family="SanFranciscoText-Semibold, San Francisco Text" font-size="35" font-weight="500">(iPhone/iPad)</tspan>
        </text>
        <text id="Native-Call-UI" font-family="SanFranciscoText-Bold, San Francisco Text" font-size="60" font-weight="bold" letter-spacing="-0.6" fill="#000000">
            <tspan x="385" y="1263">Native</tspan>
            <tspan x="385" y="1334">Call UI</tspan>
        </text>
        <text id="Local-Voicemail" font-family="SanFranciscoText-Bold, San Francisco Text" font-size="60" font-weight="bold" letter-spacing="-0.6" fill="#000000">
            <tspan x="3011.5752" y="1274">Local</tspan>
            <tspan x="2948.23418" y="1345">Voicemail</tspan>
        </text>
        <text id="Client-App" font-family="SanFranciscoText-Bold, San Francisco Text" font-size="80" font-weight="bold" letter-spacing="-0.8" fill="#000000">
            <tspan x="522" y="1613">Client App</tspan>
        </text>
        <text id="API" font-family="SanFranciscoText-Bold, San Francisco Text" font-size="60" font-weight="bold" letter-spacing="-0.6" fill="#000000">
            <tspan x="1422" y="207">API</tspan>
        </text>
        <text id="Signaling" font-family="SanFranciscoText-Bold, San Francisco Text" font-size="60" font-weight="bold" letter-spacing="-0.6" fill="#000000">
            <tspan x="1891" y="207">Signaling</tspan>
        </text>
        <text id="Push-Notifications" font-family="SanFranciscoText-Bold, San Francisco Text" font-size="60" font-weight="bold" letter-spacing="-0.6" fill="#000000">
            <tspan x="1494" y="97">Push Notifications</tspan>
        </text>
    </g>
</svg>